<svg xmlns="http://www.w3.org/2000/svg" width="1248" height="832" viewBox="0 0 1248 832">
<g>
<path d="M 654.67 638.14 C645.32,639.93 639.10,640.33 616.50,640.56 C589.25,640.85 582.60,640.35 564.76,636.65 C548.24,633.23 529.96,624.58 517.68,614.39 C508.10,606.44 496.16,587.45 494.36,577.30 C493.33,571.51 493.15,538.12 494.12,535.13 C495.18,531.90 501.83,507.44 502.58,504.00 C504.21,496.58 523.59,458.60 533.20,444.00 C543.19,428.82 559.23,407.34 574.02,389.35 C580.61,381.34 586.00,374.16 586.00,373.42 C586.00,372.67 583.48,365.63 580.40,357.78 C577.32,349.93 572.86,338.55 570.48,332.50 C561.95,310.77 559.19,303.31 555.09,290.89 C551.02,278.57 546.47,263.01 545.48,258.00 C545.20,256.62 544.69,254.38 544.33,253.00 C543.97,251.62 543.72,250.23 543.78,249.90 C543.85,249.57 543.18,245.30 542.29,240.40 C540.55,230.75 540.48,215.61 542.13,205.00 C542.68,201.43 543.29,197.38 543.47,196.00 C544.08,191.38 548.94,178.79 553.04,171.19 C561.66,155.20 572.81,144.45 589.68,135.87 C594.73,133.30 599.08,131.41 599.35,131.68 C599.61,131.94 600.88,131.60 602.15,130.92 C605.22,129.28 607.41,128.97 620.60,128.31 C643.71,127.16 661.48,133.72 677.86,149.44 C694.14,165.06 703.53,184.20 707.47,209.79 C710.11,226.91 709.43,264.05 705.97,292.53 C702.03,324.98 701.08,358.27 703.45,381.00 C705.74,403.05 709.84,420.53 724.44,470.50 C730.57,491.49 733.70,506.17 735.51,522.31 C737.34,538.73 737.35,546.59 735.54,560.18 C732.37,584.01 723.37,601.78 707.83,614.91 C694.37,626.29 677.06,633.86 654.67,638.14 ZM 584.00 633.47 C600.07,635.26 628.03,635.27 643.09,633.50 C661.04,631.39 673.34,627.99 686.88,621.39 C697.31,616.31 699.43,614.80 707.62,606.62 C715.41,598.83 717.40,596.12 721.31,588.00 C723.82,582.78 726.56,575.80 727.39,572.50 C729.67,563.49 731.30,544.47 730.53,536.00 C730.15,531.88 729.63,525.61 729.37,522.09 C729.11,518.56 728.43,514.81 727.87,513.76 C727.31,512.71 727.11,511.15 727.44,510.30 C727.77,509.44 727.57,508.19 727.00,507.50 C726.44,506.82 725.79,503.84 725.56,500.88 C725.33,497.92 724.62,494.15 723.98,492.50 C722.73,489.26 722.12,486.91 721.52,483.00 C721.16,480.68 708.52,436.33 707.26,433.00 C706.95,432.17 706.59,430.97 706.45,430.33 C704.01,418.85 701.58,409.27 700.89,408.41 C700.41,407.81 700.28,407.05 700.61,406.72 C700.94,406.39 700.52,402.61 699.67,398.31 C695.07,374.90 694.93,338.80 699.29,296.00 C701.67,272.65 701.98,268.73 702.17,259.50 C702.21,257.30 702.69,251.67 703.23,246.98 C704.28,237.97 703.42,224.92 700.47,205.00 C698.01,188.35 686.33,165.13 675.29,154.94 C660.73,141.51 647.05,135.41 629.00,134.33 C596.35,132.36 566.43,151.66 554.26,182.54 C548.93,196.05 547.49,204.58 547.58,222.00 C547.74,249.75 554.66,275.97 576.25,330.50 C581.47,343.70 586.81,357.31 588.12,360.75 C589.42,364.19 590.77,367.00 591.12,367.00 C591.47,367.00 594.74,363.67 598.38,359.59 L 605.01 352.19 L 599.40 339.34 C591.24,320.68 582.76,298.05 580.48,288.89 C579.72,285.81 577.94,280.24 576.54,276.52 C575.15,272.80 574.00,267.99 574.00,265.82 C574.00,263.64 573.59,261.11 573.10,260.18 C571.98,258.09 570.77,243.78 570.59,230.50 C570.22,202.49 584.59,177.03 606.04,167.70 C613.41,164.50 615.24,163.77 617.00,163.31 C620.03,162.53 635.60,163.12 639.98,164.18 C652.07,167.09 663.72,176.87 669.63,189.04 C679.47,209.32 678.74,237.03 667.62,265.83 C659.46,286.96 643.30,313.23 622.03,339.97 C621.10,341.14 620.25,342.21 619.47,343.18 C613.76,350.33 612.22,352.26 612.36,354.05 C612.44,354.95 612.94,355.81 613.55,357.30 C617.52,366.98 619.46,372.32 624.53,387.50 L 629.88 403.50 L 633.69 404.34 C646.39,407.12 655.19,413.22 664.99,426.02 C681.10,447.08 699.42,485.57 707.39,515.10 C712.67,534.68 713.39,539.70 713.40,557.50 C713.41,573.50 713.24,574.97 710.64,582.50 C707.19,592.46 703.92,598.26 698.62,603.83 C692.27,610.50 687.86,612.45 679.00,612.48 C672.60,612.50 670.82,612.10 666.83,609.76 C653.96,602.19 644.42,583.33 640.39,557.50 C639.89,554.29 639.35,529.07 639.05,495.50 C639.03,493.30 638.32,485.20 637.47,477.50 C636.62,469.80 635.89,462.83 635.83,462.00 C635.78,461.17 634.86,456.00 633.78,450.50 C632.70,445.00 631.62,438.70 631.37,436.50 C631.12,434.30 630.20,430.02 629.31,427.00 C628.43,423.98 627.56,420.32 627.37,418.87 C627.19,417.43 626.57,415.01 626.00,413.50 C624.80,410.35 623.34,410.40 613.91,413.93 C604.91,417.30 604.82,417.43 606.21,425.00 C608.04,434.97 607.65,473.23 605.60,485.50 C596.59,539.27 569.86,585.31 540.42,597.75 C533.35,600.74 524.09,601.18 519.50,598.76 C511.90,594.74 506.90,586.38 504.99,574.48 C503.81,567.14 503.89,547.56 505.11,545.00 C505.51,544.17 506.34,540.93 506.98,537.79 C508.88,528.32 514.12,513.01 517.59,506.75 C518.43,505.24 518.79,504.00 518.40,504.00 C518.01,504.00 518.40,503.21 519.27,502.25 C520.14,501.29 520.95,500.05 521.07,499.50 C521.19,498.95 522.37,496.79 523.69,494.70 C525.01,492.61 526.53,489.91 527.07,488.70 C527.61,487.49 529.15,484.92 530.49,483.00 C547.74,458.26 567.77,436.81 587.50,421.93 C593.43,417.46 596.21,415.42 597.02,412.77 C597.73,410.47 596.95,407.70 595.47,402.47 L 595.34 402.00 C594.49,398.98 593.65,395.74 593.46,394.80 C592.46,389.61 589.48,382.01 588.56,382.30 C587.98,382.49 582.23,389.14 575.80,397.07 C569.36,405.01 563.72,411.95 563.26,412.50 C546.68,432.39 525.12,466.83 515.42,488.91 C504.23,514.40 499.57,534.24 499.53,556.50 C499.50,569.45 499.82,572.53 501.83,579.00 C506.42,593.75 514.36,604.87 526.52,613.55 C534.07,618.94 545.93,625.01 549.89,625.51 C551.55,625.72 553.94,626.55 555.20,627.35 C558.45,629.40 570.53,631.97 584.00,633.47 ZM 607.64 342.75 C608.40,344.54 609.19,346.00 609.38,346.00 C609.93,346.00 626.00,325.30 626.00,324.59 C626.00,324.24 628.18,321.15 630.85,317.73 C635.45,311.81 644.00,299.30 644.00,298.47 C644.00,298.26 645.16,296.38 646.58,294.29 C656.87,279.12 668.52,249.08 669.41,235.39 C669.62,232.15 670.10,228.31 670.48,226.86 C671.30,223.70 669.40,206.36 667.54,199.93 C663.94,187.53 656.60,178.38 645.83,172.87 C633.61,166.63 614.88,168.01 602.73,176.05 C592.10,183.10 583.34,195.71 579.50,209.50 C576.89,218.86 576.38,241.30 578.48,254.07 C580.80,268.19 587.33,293.58 590.02,298.97 C590.44,299.81 592.49,305.23 594.57,311.00 C596.64,316.77 600.12,325.55 602.30,330.50 C604.47,335.45 606.87,340.96 607.64,342.75 ZM 520.18 591.97 C523.73,594.13 531.68,594.73 534.76,593.06 C535.72,592.54 539.06,591.01 542.19,589.64 C549.52,586.45 562.48,573.54 570.32,561.64 C576.46,552.32 586.00,533.63 586.00,530.92 C586.00,530.00 586.67,528.68 587.50,528.00 C588.33,527.32 589.00,525.97 589.00,525.00 C589.00,524.04 589.87,521.28 590.93,518.88 C595.11,509.38 599.30,488.67 600.82,470.00 C602.16,453.52 600.84,422.00 598.80,422.00 C596.49,422.00 579.60,436.28 566.94,448.94 C542.59,473.28 524.80,500.49 516.55,526.00 C513.07,536.76 510.00,553.96 510.01,562.63 C510.02,575.69 514.46,588.48 520.18,591.97 ZM 672.61 605.56 C677.11,607.21 683.56,606.80 687.83,604.59 C691.17,602.86 698.91,594.14 701.33,589.37 C703.59,584.94 707.21,570.92 706.66,568.79 C706.40,567.81 706.60,566.75 707.09,566.44 C708.70,565.45 707.98,550.39 705.57,534.50 C704.26,525.83 697.73,502.19 695.51,498.06 C693.08,493.54 689.09,484.00 689.64,484.00 C689.93,484.00 689.19,482.42 688.00,480.50 C686.81,478.58 686.07,477.00 686.35,477.00 C686.64,477.00 685.03,473.06 682.77,468.25 C666.61,433.76 647.08,410.96 633.75,411.00 C631.71,411.00 631.70,411.07 632.97,414.41 C634.03,417.21 639.30,442.78 640.92,453.00 C643.97,472.27 645.23,490.24 645.95,524.50 C646.84,566.59 647.36,569.99 655.45,586.50 C660.39,596.57 666.46,603.31 672.61,605.56 ZM 603.57 409.85 C603.86,410.72 604.64,410.94 605.76,410.45 C606.72,410.04 610.73,408.52 614.69,407.08 C618.64,405.64 622.14,404.19 622.47,403.86 C623.08,403.25 622.60,401.54 617.15,385.00 C611.53,367.92 608.29,359.50 607.39,359.59 C606.90,359.64 603.64,363.14 600.15,367.35 L 593.80 375.03 L 597.28 385.76 C599.20,391.67 601.30,399.20 601.94,402.50 C602.59,405.80 603.32,409.11 603.57,409.85 Z" fill="rgb(34,34,34)"/>
</g>
</svg>