<svg xmlns="http://www.w3.org/2000/svg" xml:space="preserve" width="171.72" height="171.72" viewBox="0 0 171.7175 171.71812"><g stroke="#000"><path fill="#ffcd00" stroke-width="1.25" d="M1.838 85.955c0-46.521 37.713-84.238 84.23-84.238 46.523 0 84.232 37.713 84.232 84.238 0 46.522-37.712 84.231-84.231 84.231-46.521 0-84.231-37.712-84.231-84.231z"/><path stroke-width=".2187478125" d="M85.702 9.975c-2.392.035-3.265 1.42-3.244 2.824.049 3.41 4.849 2.569 4.89 5.443.019 1.224-1.012 2.106-2.29 2.125-.495.007-1.35-.05-1.55-.5l-.41-.847c-.128-.315-.204-.7-.546-.653-.275.018-.228.319-.184.539l.356 1.783c.72.375 1.587.43 2.04.424 1.76-.026 3.57-1.316 3.542-3.31-.046-3.121-4.924-2.858-4.96-5.278-.016-1.17.99-1.828 1.995-1.843 1.374-.02 1.449.28 1.578.623l.185.465c.087.246.132.589.434.529.123-.016.232-.113.217-.237l-.135-1.716c-.68-.334-1.52-.377-1.918-.371zm6.742.478c-.201-.007-.401.02-.43.203-.012.138.049.212.235.299l.426.166c.134.04.308.097.33.154.074.09.044.267.015.569l-.763 8.062c-.03.302-.033.48-.123.569-.03.025-.212.048-.354.076l-.45.082c-.195.037-.273.127-.284.25-.013.275.332.279.578.303l2.053.195c.247.024.585.083.625-.19.012-.123-.046-.225-.233-.298l-.427-.164c-.134-.054-.307-.113-.331-.143-.061-.09-.044-.281-.015-.582l.765-8.063c.029-.301.04-.424.116-.486.032-.052.219-.13.359-.158l.449-.082c.199-.05.275-.113.287-.25.01-.248-.333-.28-.58-.303l-2.052-.195a3.762 3.762 0 0 0-.196-.014zm-17.6.697.012.008a3.648 3.648 0 0 0-.765.045l-3.082.492c-.258.04-.598.094-.559.338.022.136.087.195.301.23l.441.057c.14.006.324.019.373.067.095.068.109.245.157.545l1.271 7.998c.048.298.09.474.024.582-.037.033-.207.1-.336.164l-.414.179c-.195.087-.235.19-.215.313.057.27.392.189.636.15l2.024-.322c.257-.041.602-.068.572-.342-.02-.122-.102-.206-.301-.23l-.453-.053c-.142-.02-.326-.032-.357-.055-.11-.08-.111-.26-.158-.558l-.557-3.49 1.184-.19 3.33 4.4 1.507-.24c.19-.03.447-.086.399-.3-.03-.191-.215-.216-.37-.22l-.57-.075a.83.83 0 0 1-.43-.168c-.12-.135-.173-.223-.28-.373l-2.602-3.39c.027-.004 2.035-1.116 1.75-3.173-.12-.98-.878-2.305-2.531-2.39zm24.698.116-.582 1.279c-.086.192-.166.485.1.559.292.078.494-.258.607-.387l.27-.321c.102-.132.202-.278.322-.308.16-.021.09-.01.29.035l1.85.414-1.92 8.588c-.06.295-.09.473-.19.549-.05.018-.14.125-.362.103l-.461-.017c-.235-.024-.32.11-.33.22-.038.232.179.266.353.305l2.34.522c.2.045.47.135.52-.123.01-.137-.02-.257-.23-.332l-.41-.176c-.21-.075-.28-.204-.29-.25-.02-.103.02-.277.08-.572l1.91-8.592 2 .447c.2.045.14.003.26.086.11.08.14.258.16.418l.12.406c.03.163.07.55.37.604.29.049.33-.251.33-.461l.02-1.407-7.127-1.59zm-25.145.523c1.169.036 1.705.904 1.905 1.932.29 1.387-.565 2.569-1.828 2.769l-1.1.174-.738-4.644 1.22-.194c.194-.031.375-.042.54-.037zm-8.691 1.209-5.537 1.777c-.249.08-.577.185-.51.438.038.118.115.18.328.17l.444-.012c.147.01.34-.024.382.02.117.049.128.177.225.478l2.484 7.736c.093.289.182.477.12.598-.014.048-.185.145-.307.213l-.369.248c-.176.128-.21.198-.172.316.097.258.415.127.664.047l5.67-1.82-.154-1.828c.006-.161-.048-.374-.27-.346-.249.036-.336.526-.373.682l-.195.742c-.028.139-.007.203-.157.367-.075.082-.096.105-.292.168l-2.672.856a.342.342 0 0 1-.256-.034c-.069-.08-.123-.25-.215-.537l-1.156-3.6 2.527-.81c.196-.063.362-.13.514-.107.148.01.18.157.261.275l.202.313c.089.144.248.323.388.22.114-.051.159-.137.125-.242l-.732-2.277c-.046-.144-.157-.267-.276-.23-.187.047-.162.254-.168.415l-.009.422c.002.143.022.254-.053.379-.093.116-.275.13-.445.186l-2.539.814-1.325-4.123 2.815-.904c.209-.067.365-.118.5-.104.074.005.19.143.267.248l.241.297c.137.158.256.396.488.307.34-.11.004-.622-.094-.88l-.369-.878zm45.343 1.209c-.09-.011-.18.014-.21.125-.04.12 0 .136.18.313l.32.275c.11.102.26.25.28.305.09.14.11.429.13.779l.32 5.348-1.19 2.959c-.08.204-.14.356-.23.5-.13.226-1.01-.202-1.14.148-.05.17.11.25.24.303l2.29.922c.14.056.31.11.39-.038.14-.326-.63-.608-.7-.873-.05-.151.02-.318.1-.51l1.23-3.074 3.88-3.597c.24-.216.49-.411.65-.51.26-.163 1.08.167 1.16-.068.08-.217-.13-.286-.28-.348l-2.05-.826c-.14-.056-.3-.15-.39.08-.15.296.72.558.65.842-.03.163-.24.315-.41.484l-3.17 2.904-.3-4.386c-.01-.184-.06-.44-.02-.602.03-.12.14-.105.25-.107l.36.025c.22 0 .28.01.32-.105.1-.212-.09-.26-.27-.33l-2.09-.842c-.09-.036-.2-.085-.3-.096zm-55.353 2.268c-.068.013-.143.07-.217.109l-2.017 1.039c-.123.063-.298.138-.13.315.15.17.907-.127 1.032.056.1.134.084.344.117.559l1.217 7.924-5.926-5.625c-.223-.195-.242-.201-.324-.36-.044-.117.06-.185.145-.26l.224-.224c.152-.156.251-.237.22-.36-.083-.22-.279-.12-.438-.04l-1.993 1.029c-.17.088-.448.182-.316.408.075.116.124.092.357.064l.401-.066c.13-.02.3-.047.344-.023.111.036.36.28.621.517l7.2 6.779.427-.22-1.416-9.848c-.035-.276-.082-.546-.053-.73.033-.296.78-.68.703-.89-.048-.137-.109-.167-.178-.153zm-11.802 6.73v.002c-.154-.02-.35.118-.502.225l-1.688 1.183c-.202.142-.484.34-.353.55.078.114.176.129.373.075l.43-.152c.128-.056.3-.125.353-.096.115.02.205.176.38.424l4.651 6.629c.173.247.288.385.275.512-.006.038-.13.174-.218.287l-.289.353c-.127.156-.126.275-.055.377.17.217.434-.002.637-.144l1.687-1.186c.203-.142.501-.318.354-.551-.07-.101-.182-.14-.37-.074l-.433.15c-.136.046-.306.115-.344.108-.104-.028-.215-.184-.388-.432l-4.653-6.631c-.174-.247-.243-.35-.226-.445-.01-.06.081-.243.17-.355l.29-.354c.117-.167.134-.262.055-.375a.202.202 0 0 0-.136-.08zm84.334.383c-1.65.088-3.25 1.05-4.29 2.494-1.68 2.333-1.92 5.533.66 7.389 2.31 1.663 5.48.605 7.17-1.748 1.7-2.355 1.87-5.466-.63-7.266a4.483 4.483 0 0 0-2.91-.87zm.57.723a3.15 3.15 0 0 1 2 .615c1.97 1.414 1.56 3.963.01 6.105-1.33 1.853-3.77 3.383-5.81 1.912-2.11-1.518-1.64-4.078-.12-6.187.95-1.327 2.43-2.388 3.92-2.445zm-90.47 2.824c-.119-.036-.23.078-.36.197l-1.77 1.629c-.11.102-.156.218-.082.318.128.2.34.063.518-.027l.328-.19a1.52 1.52 0 0 1 .287-.115c.1-.035.212.067.305.168L42.6 34.6l-10.246-2.1-1.104 1.014c-.08.074-.19.157-.08.298.093.1.103.13.35.034l.365-.151c.15-.062.267-.114.375-.12.185-.001.305.13.51.353l5.474 5.949c.317.344.324.413.31.539a.905.905 0 0 1-.16.354l-.23.359c-.115.18-.07.27-.016.369.166.22.393-.061.575-.228l1.507-1.387c.152-.14.363-.336.157-.52-.123-.092-.27-.05-.53.096l-.298.162c-.119.053-.228.097-.344.072-.126-.015-.247-.144-.45-.367l-5.056-5.496 10.71 2.199.304-.28-6.36-6.911c-.204-.223-.344-.395-.347-.522-.017-.078.038-.221.111-.326l.27-.396c.104-.19.128-.267.054-.367a.264.264 0 0 0-.123-.092zm99.58 3.164a.22.22 0 0 0-.15.06c-.09.088-.12.175 0 .37l.21.388c.06.116.17.282.16.35 0 .117-.1.194-.31.408l-5.74 5.754c-.23.224-.36.379-.49.389-.06 0-.22-.106-.33-.174l-.39-.215c-.2-.107-.27-.095-.36-.008-.18.204.08.427.26.602l1.56 1.564c.13.126.32.28.46.125.12-.117.13-.204.02-.39l-.28-.456a.596.596 0 0 1-.09-.242c.04-.097.17-.214.4-.437l2.67-2.678 1.76 1.758c.15.145.29.272.34.418s-.03.242-.1.369l-.23.31c-.09.147-.14.35 0 .467.1.098.22.029.31-.058l1.65-1.655c.1-.097.22-.233.07-.34-.14-.116-.25-.077-.44.03l-.35.215c-.15.078-.26.146-.4.117-.12-.04-.26-.194-.4-.33l-1.76-1.758 3.07-3.076 2.03 2.019c.1.098.27.272.31.389.04.058-.03.225-.1.352l-.16.339c-.1.175-.22.429-.03.594.23.214.55-.303.74-.508l.59-.728-4.04-4.031c-.13-.131-.3-.3-.46-.303zm-54.157.174v.002a.19.19 0 0 0-.123.025l-8.223 5.027c-.198.122-.098.385.11.409l2.748.298-5.135 4.659a.185.185 0 0 0-.053.218c-1.152.476-2.082 1.355-2.523 2.709a.746.746 0 0 0-.164.469l-4.709 4.557c-2.969-.064-6.34 1.418-8.686 2.6-5.163 2.605-9.134 7-11.662 12.147-3.256 6.63-4.085 14.604-4.41 21.888-.27 6.052-.046 12.351 1.162 18.308 1.057 5.21 2.832 10.32 4.607 15.33.458 1.29 1.444 6.3 3.118 6.78.123.04.24.02.295-.1.343-.77-.379-2.72-.512-3.51-.409-2.43-.826-4.86-1.242-7.29-.278-1.63-.557-3.25-.836-4.87.017.1.88.04 1.47-.05 1.042-.17 1.485-.98 1.797-1.88.375-1.08.557-2.25.754-3.37-.008.04 1.566-.6 1.79-.73 2.005-1.21 2.582-3.73 2.761-5.871.073-.875-.02-1.089-.188-1.133.83.22 1.404.094 2.184-.293 1.518-.754 1.946-3.044 2.055-4.748.921-.206 2.33-2.092 2.943-3.295 1.005.963 3.051.843 4.459.265.036.747.343 1.47.99 1.934.455.326 1.053.655 1.641.623.674-.037.668-.03 1.301-.168.146-.032.209-.086.24-.14.044.087.109.197.232.367.081.11.188.19.295.236-2.264 1.078-3.973 3.071-3.886 5.906.091 3.007-.87 5.947-.12 8.917.455 1.8 2.064 3.55 3.319 5.02-.391.88-.148 2.39-.256 3.29-.198 1.65-.613 2.99-1.428 4.43-.949 1.68-1.954 2.02-3.748 2.49l-.133.03c-.114.04-.229.07-.343.1.012-.01.037-.01.05-.01-.479.16-.893.36-1.334.71-.626.49-.705 1.1-.425 1.45-.178.31-.354.71-.268 1.08.275-.32.394-.42.561-.56.122-.1.196-.19.257-.27.061.01.117.02.184.01a.332.332 0 0 1-.086.04c.093-.02.188-.05.281-.07.013-.01.025-.01.037-.01.011 0 .021-.01.032-.01-.828.71-.971 1.55-.096 2.32-.064.26-.215.95.084 1.4.144-.4.219-.54.324-.72a.75.75 0 0 1 .211-.25c.12.07.229.14.369.21.051.02.607-.13.633-.17.063-.12.128-.24.191-.35a1.99 1.99 0 0 0 1.629 1.81c.009.24.069 1.27.577 1.52-.068-.41.019-.37.019-.58 0-.22.258-.88.258-.88l-.135-.02c.129-.01.257-.02.395-.05-.024.01-.03.02-.055.03l.205-.06h.027c.13-.04.278-.06.401-.11 2.157-.96-.409-.5.299-2.07.295.1.534.31.759.59.02.02.591-.13.633-.17.768-.74.695-2.15.672-3.12-.017-.73-.868-1.36-1.318-1.82.037.04.397-.41.8-.94 0 .01.004.02.002.02.003-.01.002-.02.004-.03.607-.79 1.335-1.8 1.43-1.94.079-.12.154-.25.23-.37.011.05.019.09.032.14.028.1-.005-.08-.008-.1l-.012-.06c.102-.16.201-.32.299-.48-.047.65-.086 1.3-.102 1.95-.006.28.38.24.534.13 1.1-.79 2.179-1.57 3.183-2.48.093-.09.156-.16.223-.23-.017.07-.036.14-.045.23-.184 1.74-.157 3.52-.105 5.27.008.26.376.26.533.13 1.126-.99 3.9-2.97 3.865-4.03.066 2 .51 4.1 1.144 6 .085.25.448.15.584.01 1.377-1.4 2.715-2.82 3.633-4.57-.374.71 1.77 3.45 2.225 4.18.13.21.5.07.592-.1.68-1.31 1.897-2.9 2.113-4.39-.112.78 2.12 2.02 2.588 2.35.165.11.465.04.547-.15.573-1.3.935-2.57 1.062-3.99.008-.09 1.997.45 2.364.53.085.02.169 0 .24-.04.377.5.785.97 1.2 1.43-.18-.2-1.274 1.59-1.335 1.82-.255.94.026 2.1.557 2.92-.341.21-.731.41-1.172.56-1.564.53-2.033.52-3.55.3-1.514-.23-3.913-.38-5.452.41-1.54.79-3.056 3.32-3.797 5.17s-2.248 5.34-3.346 6.16c-1.095.83-2.347 1.53-3.357 1.32-1.008-.22-1.287-.57-1.373-.95s-.112-.76.24-.78c.35-.03.6.07.787.23-.027-.19-.206-.64-.394-.74-.19-.1-.607-.26-.893 0s-.581.67-.5 1.27.438 1.6 1.385 1.78c.946.18 1.04.27 2.09.08 1.05-.2 2.622-1.02 3.076-1.45.453-.43 2.609-3.94 3.183-5.48.575-1.54 1.627-3.31 2.352-4 .643-.62 2.299-1.11 3.439-1.08 1.14.02 4.005.16 5.377-.19a10.26 10.26 0 0 0 2.714-1.17c.35.08 1.01.48 1.63.7v-.03l.87.09s-.06.08-.07.1h.01-.01l-.01.01.11-.03h.03c.01-.01.02-.01.04-.02.14-.03.29-.07.43-.11-.04 0-.07-.01-.11-.01.77-.35 1.46-1.11 1.71-1.9.12.03.26.04.41.02-.03.01-.05.03-.09.04l.35-.09c.02 0 .03 0 .05-.01.02 0 .03-.01.04-.01l.2-.06h-.04c.07-.02.13-.06.19-.08-.06-.05-.11-.07-.11-.07l.58-.65.12.36c.72-.62.51-1.53-.18-2.2-.03-.02-.03-.01-.06-.03l.02-.01.67-.59s.07.12.11.16c.22-.55.07-.98-.33-1.31 1.19-1.29 3.1-3.34 3.85-3.97 1.01-.87 2.58-1.39 4.02-1.57 1.45-.19 7.55-.71 8.78-1.23 1.23-.53 1.7-1.85 1.83-2.4.12-.55-.21-1.27-.63-1.67-.4-.39-1.25-.33-1.66-.04-.69.49-.5 1.68-.5 1.68s.18-.74.69-.95c.26-.12.64-.01.84.26.24.32.04.92-.31 1.46-.35.55-1.13.97-3.02 1.15-1.88.18-3.88.13-5.53-.02-1.66-.15-3.78.57-5.02 1.21-1.23.63-2.6 2.15-3.4 3.24-.47.64-.97 1.45-1.49 2.08-1.09-.36-2.29-.63-2.75-1.02-1.34-1.16-1.89-3.78-1.77-5.92 4.79-.89 6.15-6.15 5.89-10.36-.17-2.7 1.18-5.232-.1-7.866-.63-1.284-1.29-2.308-2.13-3.082 1.16-1.539.98-1.17 2.79-.975 2.04.221 2.54-2.139 1.45-3.263v-.008c1 .97 4.19 2.23 5.36 1.031a7.771 7.771 0 0 0 2.05 2.836c.18.157.39.293.59.37.25 2.237 1.33 5.522 3.67 5.433-.05 2.874 1.17 7.024 4.22 7.694.31 2.68.81 5.27 3.59 5.64-.85 3.92-1.69 7.84-2.53 11.75h-.01s-.41 1.89-.46 2.06c-.05.16-.14 1.94-.14 1.94s.59-.65.96-1.11h.01l.06-.12c.23-.41.93-1.99.93-1.99 3.38-7.21 6.59-14.72 7.91-22.58 1.1-6.497 1.41-13.144 1.07-19.722-.35-6.665-1.43-14.058-5.05-19.818-3.92-6.243-11.05-12.137-18.76-12.407-5.58-.196-6.78 5.727-5.51 10.007.94 3.135 2.77 6.091 2.75 9.443-.01 2.015-2 3.393-3.87 3.01-1.33-.27-2.62-2.139-3.33-3.467-.58-3.695-3.417-5.748-4.371-9.274-.2-.738-2.69-4.453-3.038-4.453.874 0 1.44-.204 2.01-.855.044-.05.033-.089-.03-.11-2.95-1.08-5.294-3.52-7.025-6.024.429.62 2.805-.507 3.165-.996.037-.051.036-.09-.032-.111-3.771-1.203-10.56-10.757-14.463-4.576-.003.008-.005.02-.01.029a8.078 8.078 0 0 0-2.865-.545l3.178-2.764 1.016-.885.306.698c.139.315.274.63.413.947.085.196.338.098.4-.053l3.195-7.867c.056-.138-.068-.26-.197-.273zm23.338 91.686c-.04.09-.06.17-.12.27-.03.05-.56.18-.63.17-.01-.01-.02-.01-.03-.01.02.01.03.03.04.04.37.2.41.14.64.33.17.14.21.12.48.44.12-.52-.23-1.04-.38-1.24zm-.56 2.67c-.15.14-.35.25-.59.36.07.04.16.11.23.2.13.17.22.3.42.66.19-.39.06-.88-.06-1.22zm-3.91 2.62c-.01 0-.01.01-.02.01.01-.01.02-.01.03-.02-.23.02-.51-.06-.8-.16.01.04.04.22-.02.41-.06.2-.1.35-.28.73.56-.1.99-.8 1.09-.97zM26.835 36.057c-.132-.01-.213.129-.297.244l-1.502 2.037c-.15.204-.318.432-.086.623.067.069.19.062.426-.098l.387-.285c.132-.1.306-.227.363-.224.132-.02.238.076.518.283l6.214 4.599c1.273.938 1.377 2.529.274 4.053-1.01 1.396-2.388 2.07-3.942.926l-6.39-4.71c-.115-.084-.207-.172-.233-.271-.026-.097-.008-.281.057-.45l.174-.421c.1-.24.081-.43-.008-.496-.229-.17-.37.022-.492.188l-1.576 2.138c-.169.23-.395.536-.162.727.076.056.165.04.414-.11l.396-.296c.132-.1.296-.215.365-.203.133-.02.238.077.518.283l6.2 4.57c.406.3 2.843 1.603 5.067-1.256 2.536-3.2.218-5.28-.062-5.486l-6.225-4.586c-.28-.206-.477-.313-.488-.46-.019-.053.036-.207.086-.327l.184-.516c.055-.155.063-.324-.03-.412a.29.29 0 0 0-.15-.064zm122.61 4.978a.253.253 0 0 0-.09.033c-.13.09-.15.2-.09.428l.17.496c.06.149.14.347.1.408-.02.132-.2.235-.48.432l-7.68 5.277c-.29.197-.45.327-.59.31-.05-.007-.2-.151-.33-.255l-.4-.336c-.18-.146-.32-.15-.43-.068-.25.192-.01.5.16.734l1.34 1.954c.16.235.36.58.63.412.12-.08.16-.207.09-.425l-.17-.497c-.05-.158-.13-.355-.12-.4.03-.118.22-.243.5-.44l7.68-5.276c.28-.197.4-.278.51-.258.07-.01.28.098.41.202l.4.336c.19.137.3.157.43.068.23-.174 0-.5-.16-.734l-1.34-1.956c-.14-.205-.33-.478-.54-.445zm1.16 9.396c-.85.033-1.72.251-2.52.642-2.58 1.263-4.3 3.974-2.9 6.826 1.25 2.557 4.54 3.12 7.15 1.844 2.6-1.275 4.22-3.937 2.87-6.703-.91-1.859-2.72-2.683-4.6-2.609zm1 .996c1.28.048 2.46.596 3.08 1.867 1.06 2.174-.5 4.227-2.88 5.387-2.05 1.003-4.92 1.201-6.02-1.059-1.15-2.334.47-4.369 2.81-5.512.93-.457 2-.72 3.01-.683zm-134.76 3.35L14.62 60.15c-.101.242-.23.56.006.672.114.048.21.028.34-.142l.277-.346c.103-.106.202-.273.264-.277.113-.058.218.014.509.134l7.507 3.112c.28.116.481.17.533.295.028.041-.009.233-.037.371l-.047.441c-.015.217.013.29.127.336.26.093.367-.235.467-.477l2.28-5.5-1.495-1.064c-.118-.109-.317-.207-.439-.019-.133.212.184.597.28.726l.44.63c.086.11.15.137.178.356.014.11.017.14-.062.33l-1.074 2.592a.336.336 0 0 1-.192.174c-.105.001-.269-.068-.549-.184l-3.492-1.445 1.016-2.453c.08-.19.134-.36.25-.46.103-.107.238-.037.381-.022l.367.048c.168.025.408.02.42-.154.035-.119-.002-.208-.104-.25l-2.21-.916c-.14-.057-.307-.054-.354.061-.086.172.09.291.207.4l.316.28c.112.09.207.144.254.283.03.146-.078.296-.146.461l-1.02 2.462-4.001-1.656 1.13-2.732c.085-.203.148-.356.247-.449.05-.053.23-.053.36-.043l.384.01c.21-.003.467.057.549-.176.137-.33-.473-.403-.732-.497l-.908-.287zm141.55 5.921a.26.26 0 0 0-.08.018c-.13.048-.16.128-.16.355l-.01.371c.01.153 0 .37-.03.42-.06.101-.35.29-.65.453l-8.35 4.911.09.361 9.62.115-8.34 4.822.09.332 9.79.23c.24.006.49-.017.65.085.28.181.56.963.8.914.19-.035.15-.195.12-.315l-.62-2.369c-.03-.133-.11-.24-.25-.218-.37.066-.04 1.048-.28 1.097-.17.028-.21.025-.34.03l-7.44-.1 6.35-3.635c.14-.08.27-.13.44-.158.11-.014.52.633.65.611.3-.049.2-.223.16-.383l-.62-2.382c-.03-.133 0-.27-.26-.23-.22.028-.11.88-.37.933-.18.048-.29.008-.47-.004l-7.38-.088 6.44-3.633c.28-.155.26-.166.42-.207.11-.027.18.165.25.291l.18.28c.13.165.2.26.32.242.24-.019.18-.245.14-.405l-.61-2.328c-.04-.175-.07-.419-.25-.416zm-145.08 3.94c-.27-.05-.31.181-.354.37l-.531 2.261c-.057.241-.132.561.119.634.077.033.192.018.316-.207l.215-.373c.072-.125.153-.289.199-.306.1-.062.217-.019.512.05l3.557.85-1.092 4.644-3.735-.876a.5.5 0 0 1-.275-.15c-.057-.057-.058-.24-.066-.384l-.022-.443c-.02-.216-.065-.326-.2-.357-.24-.057-.29.157-.331.332l-.53 2.248c-.056.24-.132.563.12.636.08.02.193.017.314-.195l.215-.373c.072-.124.153-.29.203-.32.099-.062.214-.007.508.062l7.936 1.865c.31.073.487.09.55.188.03.05.086.232.081.373l.03.416c.02.216.077.272.181.311.258.102.29-.27.342-.499l.471-1.994c.065-.28.191-.703-.073-.722-.123-.015-.193-.019-.33.26l-.203.39a.887.887 0 0 1-.228.313c-.103.075-.27.007-.578-.065l-3.603-.832 1.092-4.646 3.733.88c.174.04.353.053.414.153.034.036.091.22.086.36l.03.415c.02.217.074.286.181.311.255.117.29-.27.34-.485l.471-2.007c.063-.269.194-.703-.07-.723-.127 0-.192-.018-.329.26l-.209.404c-.058.128-.178.284-.228.314-.1.062-.27.007-.578-.066L14.03 66.05c-.294-.07-.416-.085-.478-.184-.03-.049-.028-.247-.04-.377l-.02-.457c-.02-.216.013-.35-.175-.394zm138.24 11.634c-.26-.006-.21.308-.19.514l.17 2.055c-.01.097.06.396.26.338.12-.024.2-.154.23-.364l.07-.31c.02-.14.1-.31.21-.307.17-.013.25.007.53.094l2.08.521.31 3.836-2.14.963c-.13.066-.21.142-.38.141-.27-.004-.22-.878-.59-.86-.26.006-.24.183-.22.348l.19 2.385c.02.178-.03.457.27.404.36-.083.21-.845.48-1.088.14-.122.33-.177.55-.279l9.09-4.14-.04-.493-9.55-2.527c-.33-.098-.66-.166-.77-.254-.04-.024-.11-.2-.15-.32l-.14-.416c-.07-.2-.13-.238-.27-.24zm-140.89.182v.002c-.066 0-.133.006-.193.014l-1.602.217-.607 8.374 1.555.444c.233.065.579.107.617-.207.042-.346-.374-.52-.541-.627l-.41-.252c-.168-.09-.353-.183-.407-.315-.05-.177-.023-.097-.005-.334l.156-2.175 10.094.732c.347.025.555.025.658.127.028.05.162.138.176.393l.059.527c.012.271.179.347.306.34.27.004.272-.25.287-.455l.2-2.744c.016-.237.072-.567-.23-.573-.158.004-.29.06-.34.31l-.13.497c-.05.251-.184.351-.234.38-.114.038-.317.023-.664-.003l-10.096-.715.17-2.35c.017-.236-.02-.16.055-.314.073-.137.269-.2.447-.252l.444-.205c.179-.066.613-.178.623-.525.006-.25-.188-.31-.387-.31zm145.04 2.557 4.87 1.281-4.6 2.035-.27-3.316zm.36 29.678c-.3.03-.57.23-.68.53-.14.41.06.86.47 1 .41.15.92-.13 1-.53.11-.44-.09-.83-.49-.96-.1-.03-.2-.04-.3-.04zm-8.61 1.09-1.88 4.54 1.38 1.13c.14.11.29.07.37-.04.14-.18-.07-.39-.2-.61l-.17-.31c-.14-.23-.31-.51-.32-.62 0-.14.07-.3.14-.49l1.02-2.46 5.99 6.75.4-.97-6.73-6.92zm-125.79.19a5.246 5.246 0 0 0-2.088.39c-2.172.9-3.717 3.03-2.724 5.43.89 2.15 3.55 2.78 5.742 1.87 2.193-.9 3.656-2.99 2.693-5.32-.648-1.57-2.088-2.33-3.623-2.37zm.412.84c1.19.02 2.284.52 2.775 1.71.757 1.83-.628 3.42-2.625 4.25-1.726.71-4.081.72-4.868-1.18-.813-1.97.616-3.54 2.58-4.36.674-.27 1.424-.43 2.138-.42zm121.98 6.76-.29.52 3.48 6.75.5.28 1.96-3.51 1.67.93.37-.68-1.67-.93.54-.97-.66-.37-.55.97-5.35-2.99zm-116.66.16c-.02 0-.04.01-.062.02-.097.06-.123.13-.086.3l.088.35c.037.11.082.26.06.31-.023.09-.155.16-.369.28l-5.717 3.35c-.213.13-.333.21-.435.19-.037-.01-.138-.12-.225-.2l-.263-.25c-.125-.13-.216-.13-.303-.07-.188.12-.026.35.076.53l.848 1.44c.108.18.231.44.431.33.087-.05.126-.13.084-.29l-.093-.36c-.029-.12-.073-.26-.065-.29.028-.11.166-.16.38-.29l2.493-1.46.494.84-2.359 3.85.633 1.08c.08.13.197.31.347.21.136-.08.101-.23.057-.35l-.11-.45a.666.666 0 0 1 0-.38c.066-.13.117-.2.2-.33l1.805-2.99c.011.02 1.458 1.22 2.941.39.813-.44 1.721-1.65.805-3.21l-1.293-2.2c-.095-.16-.216-.37-.362-.35zm117.45 1.17 4.19 2.34-1.54 2.76-2.65-5.1zm-116.85.51.514.88c.65 1.1.112 1.9-.715 2.42-.97.64-2.127.34-2.656-.56l-.46-.79 3.317-1.95zm112.79 5.18c-.68-.05-1.37.23-1.82.82-.71.94-.52 2.36.45 3.08.71.54 1.63.55 2.29.24-.14.88.06 1.99.94 2.65 1.06.81 2.79.6 3.65-.55.89-1.19.62-2.95-.62-3.77-.9-.58-1.87-.52-2.8-.01.06-.82-.2-1.53-.9-2.04-.36-.26-.77-.4-1.19-.42zm-.4.74v.01c.35 0 .73.15 1.05.37.66.45 1.12 1.27.67 1.96-.44.68-1.46.63-2.12.15-.66-.47-1.03-1.4-.56-2.01.26-.35.6-.48.96-.48zm-108.93.88c-1.099-.04-2.24.36-3.19 1.1-2.21 1.74-2.613 4.11-1.166 5.89 1.062 1.34 2.54 1.57 2.573 1.56l1.738-1.36.508.31c.141.09.297.25.426.12.154-.15.046-.25-.038-.35l-1.216-1.57c-.104-.13-.24-.27-.39-.15-.168.12.018.43.106.69l.084.22-1.666 1.3c-.495-.01-1.259-.52-1.724-1.09-1.388-1.69-.197-3.68 1.396-4.84 1.7-1.24 3.795-1.72 5.045-.02.661.88.68 1.45.483 1.75l-.53.78c-.078.12-.103.25-.029.37.086.14.224.12.33.04l1.057-.83c.01-.79-.27-1.58-.864-2.36-.778-1.04-1.834-1.52-2.933-1.56zm112.45 1.22c.48.01.98.19 1.4.5.76.55 1.23 1.45.56 2.45-.65.95-1.75.94-2.63.3-.93-.71-1.25-1.86-.57-2.67.32-.4.77-.58 1.24-.58zm-8.3 2.56c-.04 0-.08.03-.13.07-.12.12-.01.51-.11 1.02-.15.72-.58 1.09-.4 1.26.08.06.18.06.3-.08l.51-.58.23-.26.37.26 4.54 3.97c.19.17.35.29.38.38-.01.04-.08.17-.11.28l-.15.33c-.04.12-.05.22.01.29.13.15.29-.1.42-.24l1.1-1.26c.13-.15.36-.35.18-.45-.09-.05-.12-.04-.29.04l-.28.17c-.11.05-.24.13-.28.14-.09-.01-.24-.15-.42-.31l-5.58-4.87c-.06-.06-.16-.18-.28-.16h-.01zm-95.928 3.99-7.26 3.55c-.253.11-.5.25-.61.25-.04.01-.178-.06-.265-.12l-.31-.18c-.153-.08-.209-.08-.296 0-.165.13.034.3.155.42l1.205 1.18c.05.06.25.21.344.07.062-.08.036-.2-.053-.35l-.12-.23c-.066-.1-.108-.25-.036-.3.094-.1.16-.13.38-.23l1.56-.79 2.25 2.21-.812 1.74c-.046.11-.053.2-.156.29-.174.14-.609-.43-.83-.22-.158.15-.045.24.051.34l1.396 1.37c.105.1.228.3.385.11.173-.24-.326-.64-.289-.93.023-.15.11-.29.195-.47l3.405-7.43-.289-.28zm-1.006 1.15-1.762 3.73-1.945-1.91 3.707-1.82zm91.213.58c-.06-.02-.11.03-.15.07l-.73.61c-.08.07-.18.15-.11.24.01.03.06.05.15.01l.16-.07c.06-.03.12-.06.14-.05.05 0 .08.04.16.14l.96 1.14-1.49 1.26-1.01-1.2c-.04-.04-.06-.08-.06-.11s.04-.1.07-.14l.11-.15c.04-.08.05-.13.02-.17-.07-.08-.14-.02-.19.03l-.72.61c-.08.06-.18.15-.12.23.02.03.06.06.15.02l.16-.07c.06-.03.12-.06.15-.06.04 0 .07.05.15.15l2.15 2.54c.09.1.14.15.14.2-.01.02-.03.1-.07.14l-.09.14c-.04.08-.04.11-.02.15.06.1.17-.02.24-.08l.64-.54c.09-.08.23-.19.15-.26-.04-.03-.06-.05-.17.01l-.16.08c-.06.03-.13.05-.15.04-.06 0-.09-.06-.18-.16l-.98-1.15 1.49-1.26 1.02 1.2c.04.06.1.1.09.15 0 .02-.02.1-.06.14l-.09.15c-.04.07-.04.11-.01.14.05.1.16-.02.23-.08l.64-.54c.09-.07.23-.18.15-.25-.04-.04-.06-.06-.17 0l-.17.08c-.05.03-.12.05-.15.05-.04 0-.09-.06-.17-.16l-2.15-2.55c-.08-.09-.12-.13-.12-.18 0-.02.05-.08.08-.13l.11-.15c.04-.08.09-.12.04-.18-.02-.02-.04-.03-.06-.03zm-86.498 1.89c-.023 0-.046.02-.07.05-.068.09-.088.1.027.28l.175.28c.072.11.134.19.155.28.03.15-.057.26-.205.46l-3.953 5.31c-.229.3-.284.32-.387.33a.794.794 0 0 1-.309-.08l-.324-.13c-.162-.06-.227-.01-.299.04-.152.17.11.31.272.43l1.343 1c.136.1.326.24.442.05.055-.11 0-.22-.156-.41l-.176-.22c-.06-.08-.113-.16-.112-.26-.006-.1.08-.22.227-.42l3.652-4.9-.142 8.95.271.2 4.59-6.16c.148-.2.266-.34.367-.36.061-.03.185-.01.28.04l.36.15c.168.06.234.07.304-.01.137-.16-.007-.25-.16-.37l-1.579-1.17c-.098-.08-.197-.1-.267-.02-.14.13.001.28.1.41l.203.23c.05.07.111.16.136.22.043.07-.022.18-.09.27l-3.642 4.89.133-8.56-.983-.73a.31.31 0 0 0-.117-.07.076.076 0 0 0-.066 0zm82.688 1.21-2.41 1.78.24.52c.04.08.11.18.2.12.11-.07.06-.23.05-.3l-.03-.16c-.02-.07-.03-.14-.01-.19.04-.05.02-.03.09-.08l.62-.46 2.14 2.9c.08.1.13.15.12.2 0 .02 0 .08-.06.14l-.13.14c-.07.07-.05.13-.02.16.06.08.13.02.19-.03l.78-.58c.07-.05.17-.11.11-.19-.04-.04-.09-.07-.17-.02l-.16.08c-.08.04-.14.03-.16.02a.828.828 0 0 1-.15-.18l-2.15-2.89.68-.5c.06-.05.03-.04.09-.06.06-.01.12.03.18.07l.15.07c.06.03.19.12.29.05.09-.08.01-.17-.06-.23l-.42-.38zm-3.7 2.95-3 1.85 1.09 3.65c.05 0 2.9-2.09 4.33.05.65.98.41 2.37-.59 3.05-.94.64-2 .01-1.92.45.1.57 1.61.53 2.36.06 1.41-.87 1.75-2.82.83-4.18-1.43-2.15-3.92-1.02-4.63-.47l-.65-2.26 2.34-1.44-.16-.76zm-70.807 1.64a.189.189 0 0 0-.105.08c-.057.1-.036.17.072.3l.26.27c.086.07.194.18.191.23.025.09-.058.21-.183.42l-3.346 5.73c-.125.21-.189.34-.287.37-.03.01-.174-.03-.287-.06l-.362-.09c-.158-.04-.248 0-.298.08-.104.2.15.32.324.43l1.457.85c.175.1.406.26.53.07.05-.08.043-.18-.07-.3l-.26-.27c-.08-.08-.19-.19-.198-.22-.015-.08.064-.22.19-.43l3.343-5.72c.125-.22.177-.31.254-.33.042-.02.208-.02.322.01l.361.09c.164.04.243.02.3-.08.092-.18-.152-.32-.327-.43l-1.457-.85c-.13-.07-.3-.17-.424-.15zm63.458 2.66c-.31.02-.65.1-1.02.26-1.21.53-1.76 2.15-1.33 3.12.08.17.16.32.31.26.17-.06.1-.2.12-.34.06-.71.2-1.8 1.07-2.25.99-.51 1.84.15 2.12.77.42.97.1 2.05-.13 3.28-.32 1.58-.99 3.69-1.11 3.95l.27.57 4.47-2.14-.23-1.46c-.03-.22-.04-.37-.11-.55-.06-.11-.21-.19-.31-.15-.16.11-.25.41-.29.69l-.07.57a.91.91 0 0 1-.13.46c-.09.12-.16.21-.31.28l-2.61 1.24c.4-1.2.74-1.91 1.08-3.13.4-1.44.86-3.03.24-4.09-.46-.8-1.1-1.38-2.03-1.34zm-58.229.14-.633.94c-.09.15-.18.37-.066.44.19.13.444-.1.568-.18l.266-.2c.117-.09.25-.19.35-.2.141.02.483.19.626.25l1.942.9-7.9 5.51 4.72 2.18.762-.88c.17-.18.423-.44.146-.61-.22-.14-.582.24-.71.3l-.296.19c-.143.09-.286.16-.402.15-.13-.01-.453-.15-.606-.22l-2.269-1.04 7.857-5.53-4.355-2zm6.238 2.75c-.102-.01-.188.02-.227.12-.03.1-.008.18.14.27l.3.2c.093.08.236.15.244.2.054.09.001.18-.078.42l-2.033 6.33c-.076.24-.107.41-.205.46-.032.02-.193.01-.307 0l-.363-.02c-.178.01-.233.03-.264.13-.058.22.216.28.42.35l4.637 1.49.769-1.29c.081-.1.145-.27-.015-.36-.183-.09-.474.19-.573.28l-.484.4c-.084.08-.1.13-.277.17-.09.02-.115.02-.276-.03l-2.185-.7a.309.309 0 0 1-.155-.15c-.007-.08.038-.22.114-.46l.945-2.94 2.068.66c.161.05.303.09.393.17.094.08.045.2.043.31l-.016.31c-.008.14.012.33.155.33.1.02.169-.02.197-.1l.599-1.87c.039-.12.023-.25-.074-.28-.146-.06-.23.09-.31.19l-.209.28c-.067.1-.103.18-.213.23-.117.03-.248-.05-.387-.09l-2.078-.67 1.086-3.37 2.303.74c.171.05.299.09.382.17.047.04.058.18.059.29l.018.31c.015.17-.017.39.179.44.279.09.298-.41.356-.63l.174-.76-4.532-1.46c-.1-.03-.218-.07-.32-.07zm38.06 2.21c-.17.01-.33.03-.5.07l-2.37.55c-.196.04-.464.08-.426.29.022.1.062.17.236.18l.375.02c.114-.01.268 0 .309.03.083.06.102.2.158.44l1.499 6.47c.06.24.11.38.06.46-.03.06-.16.11-.26.18l-.332.18c-.154.08-.162.15-.14.25.06.21.302.13.512.08l2.54-.59c1.5-.35 2.5-1.54 2.18-3.19-.29-1.45-1.75-1.81-2.34-1.74.17-.18 1.07-.92.71-2.19-.24-.83-1.09-1.54-2.21-1.49zm-30.783.03c-.077.01-.132.05-.16.17-.022.12.034.19.192.27l.328.15c.105.05.24.12.267.16.043.08.017.22-.029.48l-1.187 6.48c-.047.26-.081.44-.139.51-.029.03-.18.05-.299.07l-.385.04c-.163.01-.215-.01-.258.1-.091.24.263.25.473.29l2.613.48c2.059.38 4.34-.66 4.934-3.59.4-1.94-.704-4.59-3.172-5.04l-2.879-.53c-.122-.02-.221-.05-.299-.04zm30.724.5c.65 0 1.21.51 1.38 1.22.19.83-.02 1.76-.96 1.97l-1.11.26-.731-3.15 1.13-.27c.1-.02.19-.03.29-.03zm-29.183.26 1.438.26c2.014.37 2.823 2.58 2.408 4.47-.594 2.75-2.266 3.51-4.223 3.14l-.664-.12a.364.364 0 0 1-.228-.13c-.048-.05-.108-.1-.096-.16l1.365-7.46zm23.498.3-4.728.52c-.213.03-.492.06-.481.27.012.1.064.16.237.19l.357.06c.117.03.275.04.303.08.086.06.075.16.103.42l.727 6.61c.027.25.067.41-.002.5-.018.03-.172.09-.281.12l-.336.14c-.162.07-.201.12-.19.22.037.23.313.17.526.15l4.842-.53.175-1.49c.032-.13.023-.31-.16-.32-.205-.02-.355.36-.41.48l-.277.56c-.045.11-.04.17-.186.27-.073.06-.096.07-.263.09l-2.282.25a.276.276 0 0 1-.2-.07c-.041-.07-.057-.22-.085-.47l-.338-3.07 2.158-.24c.168-.02.313-.04.43 0 .117.03.12.16.166.27l.11.28c.048.13.146.3.275.24.099-.02.149-.09.139-.18l-.213-1.94c-.014-.12-.083-.24-.184-.23-.157 0-.172.18-.203.31l-.076.33c-.022.12-.024.21-.106.3-.093.08-.241.06-.386.07l-2.17.24-.387-3.52 2.404-.27c.179-.02.313-.03.418 0 .059.02.129.15.174.24l.145.28c.084.15.14.36.34.33.292-.03.103-.5.068-.72l-.153-.77zm-11.992.65c-.202 0-.484 0-.496.21 0 .1.033.17.213.21l.348.11c.1.03.259.06.293.11.067.07.056.17.054.42l-.02 6.64c0 .26.01.43-.058.51-.033.03-.191.07-.293.09l-.347.1c-.18.06-.215.1-.215.2.01.23.29.2.494.21h1.812c.147 0 .349-.02.338-.19 0-.13-.044-.19-.213-.24l-.427-.1a.52.52 0 0 1-.192-.09c-.033-.08-.022-.22-.021-.48l.01-3.1 2.037.01c.168 0 .325-.01.437.05.112.05.123.15.156.27l.045.31c.033.14.124.28.27.27.112 0 .146-.11.146-.21l.006-1.92c0-.11-.01-.25-.156-.23-.146.01-.193.1-.238.27l-.08.32c-.046.14-.068.24-.17.31-.09.04-.26.03-.416.03l-2.035-.01.009-3.55 2.34.01c.113 0 .316 0 .406.04.057.01.11.15.145.26l.1.3c.045.15.123.37.326.36.258-.01.147-.5.136-.72l-.076-.77-4.668-.01zm18.697 2.4c1.15-.08 1.71.57 1.98 1.54.27 1.09-.14 2.2-1.47 2.5l-.71.16c-.15.04-.3.09-.42-.01-.07-.06-.1-.1-.12-.18l-.86-3.68 1.07-.24c.19-.05.36-.07.53-.09zm6.73 1.27c-.05.01-.1.02-.16.03-.4.12-.65.55-.53.96.11.42.65.68 1.02.51.41-.18.62-.56.49-.96a.78.78 0 0 0-.82-.54z"/><path fill="none" stroke-width=".3125" d="M5.505 85.955c0-44.496 36.07-80.569 80.569-80.569 44.496 0 80.569 36.071 80.569 80.569 0 44.496-36.071 80.569-80.57 80.569-44.495 0-80.568-36.071-80.568-80.569z"/></g><path fill="#ffcd00" d="M81.63 39.357c-.97-.007-1.893.466-2.688 1.723-.171.358-.255.74-.3 1.13a12.59 12.59 0 0 1-.077 1.745c-.031.668-.13 1.304-.517 1.838-.293.522-.72.902-1.344.994-.024.004-.045.002-.068.004-.042.022.309-.036.398.682.217 1.747 1.81 2.525 2.354 4.051.428 1.205.637 2.484.683 3.776.176.62.395 1.23.842 1.637.669.608 1.857.75 2.525.052-.153-.938-.225-1.866-.968-2.695-.11-.123-.015-.425-.114-.535.824.92 1.049 2.092 1.198 3.281.276 2.215 3.249 3.166 4.304 1.16-.3-.98-.636-1.836-1.373-2.633-.111-.12-.016-.427-.115-.535.57.618 1.008 1.288 1.25 2.098.098.328.18.66.277.98.047-.096.094-.19.13-.3-.046.14.168.38.115.535-.026.075-.06.141-.09.211.159.37.38.703.763.95 1.62 1.04 3.052.437 3.31-1.476-.021.163.138.362.114.535-.244 1.806-1.738 2.671-3.31 1.473-.528-.402-.744-.76-.926-1.37-.897 1.773-3.5 1.411-4.244-.42a4.427 4.427 0 0 1-.215-.716c-.74.758-2.18.534-2.74-.332-.36-.555-.55-1.176-.733-1.8.054 1.865-.232 3.758-.756 5.503-.416 1.387-.868 2.765-1.412 4.108-.196.486-.387.98-.617 1.451-.266.544-.79.642-1.06 1.142.065-.12.316-.207.492-.19 0-.002.002-.004.004-.005.13-.194.507.026.705.301 0-.003.005-.005.006-.008-.002.004-.001.01-.002.014a.757.757 0 0 1 .088.162c1.109.707 2.399 1.352 3.73.23.096-.08.47-.259.586-.129 1.46 1.65 3.523 2.176 5.29.372.103-.105.454-.239.587-.129 1.966 1.61 4.199 1.938 6.217.007.112-.106.442-.232.588-.128 1.585 1.137 3.652 1.784 5.103-.366.332-.492.419-.467.959-.769.11-.062.36-.145.48-.06.03.02.06.041.1.062l-.03-.198c0-.046.05-.03.13.01-.49-1.92-1.49-3.245-2.768-5.04-.932-1.31-.952-2.744-1.762-4.046-.887-1.426-1.906-2.77-3.251-3.789-.132-.1.31-.234.353-.24.264-.04 2.387-.432 1.975-.645-1.002-.516-1.951-1.133-2.871-1.783-1.757-1.24-2.916-2.771-4.141-4.507-.078-.11.404-.222.45-.222 4.887-.035 1.088-1.447-.733-2.78-1.64-1.198-4.406-4.352-6.881-4.371zm-6.682 1.317-.105.023c.036-.003.072-.003.109-.006l-.004-.017zm.8.156a6.534 6.534 0 0 0-2.007.315c-1.488.459-2.386 1.16-2.871 2.417.637-.358 1.788-.38 2.815-.287.093-.016.192-.03.304-.027.987.018 2.102.155 2.596 1.117.065.126-.11.225-.19.11-.371-.542-1.112-.844-1.865-.987a6.008 6.008 0 0 0-.541-.021c-.448.007-.49.035-.834.33-.227.194-.39.266-.463.32l-.037.035c-.027.047.046.087.276.207 1.19.624 2.287 1.214 3.283 2.127.034.032.067.05.1.075l.042-.014c2.498-.451 1.377-3.582 1.88-5.145-.308-.22-.971-.346-1.27-.42a5.371 5.371 0 0 0-1.217-.152zm.532 3.182.018.013c-.006-.004-.012-.01-.018-.013zm-3.836.34-5.015 4.744c.057.016.118.027.175.045 4.74 1.488 6.022 6.417 4.215 10.782-.799 1.931-1.773 3.816-2.463 5.791-.28.801-.628 1.655-.707 2.51-.338 3.678 2.326 4.126 4.09 3.086 1.483-.875 2.72-2.13 3.72-3.528a.487.487 0 0 1-.253-.008c-.035-.012-.072-.03-.055-.076 1.123-2.885 2.51-5.674 3.055-8.763.348-1.979.635-5.408-.45-7.24-.52-.88-1.456-1.63-1.896-2.568-.244-.523-.403-1.98-.857-2.34-.052-.042-.004-.085.064-.125-.227-.148-.411-.392-.716-.631-.883-.691-1.913-1.163-2.905-1.677l-.002-.002zm4.588 2.257a.714.714 0 0 1-.142.069 2.81 2.81 0 0 0 .142-.07zm35.787 2.746c-1.79.02-3.63.595-4.7 2.142-2.12 3.048-1.27 6.375-.04 9.6.98 2.568 2.39 5.412 1.97 8.228-.11.704-.55 1.368-1.15 1.852 4.28-1.529-.38-9.313-.97-11.996-.58-2.632-.23-5.96 2.42-7.38 3.55-1.9 8.27.245 11.32 2.22 5.58 3.605 9.11 9.213 10.69 15.601.38 1.546.69 3.111.94 4.686.01.01.01.018.02.027.07.143.05.414.1.518-.02-.033-.03-.066-.05-.098.95 6.313.9 12.803.18 19.12-.1.856-.22 1.706-.35 2.55.05.022.1.047.16.066-.04-.014-.12.05-.2.143-.86 5.155-2.43 10.085-4.33 14.965-.64 3-1.29 6-1.93 9 3.24-7.07 6.18-14.41 7.28-22.1.95-6.719 1.33-13.607.69-20.375-.68-7.217-2.11-14.945-7-20.598-3.49-4.039-8.77-7.741-14.29-8.147a9.186 9.186 0 0 0-.76-.024zm-46.529.457c-5.25.13-10.635 2.94-14.355 6.521-5.939 5.716-8.362 13.59-9.43 21.586-1.016 7.6-1.084 15.417-.076 23.03.747 5.64 2.573 11.14 4.431 16.5.655 1.9 1.314 3.79 2.06 5.66l-.114-.69c-.622-3.7-1.257-7.39-1.893-11.09-1.59-4.75-2.909-9.52-3.62-14.441a2.907 2.907 0 0 1-.319.125.753.753 0 0 0 .304-.221 56.723 56.723 0 0 1-.465-4.484c-.375-6.07-.22-12.836 1.2-19.155a.11.11 0 0 1 .011-.066l.006-.012c1.825-8.05 5.715-15.369 13.2-19.588 2.997-1.69 8.165-4.041 11.345-1.46 2.32 1.882 2.572 5.084 1.569 7.757-.253.673-.75 1.668-1.274 2.801a.415.415 0 0 0 .043.158c-.023-.039-.038-.079-.06-.119-1.442 3.125-3.059 7.271-.264 8.57-.354-.483-.638-1.117-.826-1.933-.749-3.239 2.16-7.076 3.189-9.959 1.418-3.974.751-9.623-4.662-9.49zm-1.49 1.345c-1.588.063-3.205.565-4.629 1.145-6.556 2.667-11.664 8.237-14.117 14.84a46.54 46.54 0 0 0-1.578 5.191c1.72-2.839 3.84-5.794 6.63-7.6 1.466-.948 3.003-1.7 4.553-2.494.493-.25 1.97-.78 2.113-1.437.35-1.6-2.53-1.496-2.834-2.918-.176-.832-.242-1.8.934-2.016 2.58-.47 5.158.43 7.748.264 1.748-.113 1.704-.849 1.817-2.547.04-.616.733-1.112 1.345-.998.808.151.948.742 1.09 1.451.552 2.745-.65 5.468.926 8.172.016.027.021.058.029.09.282-.604.542-1.16.713-1.578 1.396-3.422 1.401-8.757-3.297-9.489a7.23 7.23 0 0 0-1.443-.076zm48.209.072c-1.72.046-3.26.705-4.25 2.395-1.63 2.786-.69 5.684.4 8.504 1.01-1.68 1.13-3.777 1.26-5.688v-.185c0-.026-.01-.052-.02-.078-.02-.045 0-.076.03-.1.02-.976-.02-2.6.66-3.14.63-.505 1.67-.209 1.85.613.03.167.13.475.13.681.03 2 .74 2.146 2.46 2.178s5.9-1.007 7.28.285c2.48 2.328-3.34 4.032-2.39 4.916 2.03 1.902 4.93 2.672 6.99 4.598 2.31 2.147 4.08 4.737 5.57 7.496-1.29-7.416-4.17-14.513-10.58-18.935-2.15-1.48-6.11-3.627-9.39-3.54zm-46.231 1.922c-2.078-.009-.387 3.358-2.384 3.487-.182.011-.367.006-.549.007-1.428 4.517-2.706 9.115-3.66 13.754a56.242 56.242 0 0 0-1.104 13.325c.29-.298.57-.557.625-.532.305.14.922.173 1.273.1.092-.18.22-.42.385-.723.178-.47.347-.94.485-1.424.026-.09.332-.427.646-.748-.017-3.475.221-6.935 1.008-10.388 1.074-4.713 2.547-9.366 4.275-13.879.005-.014.017-.018.026-.027.041-1.455-.008-2.8-.557-2.903a2.625 2.625 0 0 0-.469-.049zm45.12.094v.002c-.63-.002-.95.407-1.08 1.123-.1.573-.16 1.168-.21 1.768 1.52 4.72 2.82 9.592 3.6 14.494.51 3.277.57 6.524.4 9.77.19-.116.39-.247.6-.403.01-.006.02-.01.03-.018.22.974.49 2.34 1.19 3.092.24.26.91.432 1.45.535.36-4.43.19-8.909-.52-13.275-.73-4.503-1.69-8.979-2.83-13.396-.78-.215-1.35-.612-1.47-1.325-.14-.78.17-2.16-.88-2.34-.1-.017-.19-.027-.28-.027zm-53.44 2.951a9.154 9.154 0 0 0-1.934.121c-2.4.438-.783 1.922.465 2.797.451.316.817.483.961 1.047.125.488.173 1.087-.27 1.46-1.367 1.144-3.054 1.812-4.66 2.616-.635 1.803-1.005 3.69-1.367 5.563-.837 4.34-1.868 8.74-2.11 13.158-.173 3.128-.09 6.252.145 9.37l.581-.6c.234 1.288 2.068-.088 2.363-.639.504-.94.937-1.906 1.25-2.926.057-.185.323-.404.601-.623l.01-.01c-.194-3.67-.226-7.413.385-11.039 1.137-6.757 2.64-13.718 4.96-20.189a19.073 19.073 0 0 0-1.38-.106zm1.564.125a.524.524 0 0 1-.013.16c-.219.657-.448 1.311-.65 1.973a108.979 108.979 0 0 0-1.17 4.166c-1.127 4.29-2.154 8.618-2.936 12.984-.69 3.86-.76 7.807-.559 11.717l.553-.572c.031.652 1.716 1.143 1.922.766.506-.928.898-1.888 1.17-2.907.022-.08.258-.363.521-.65-.186-4.416.135-8.868 1.018-13.162.982-4.773 2.27-9.5 3.736-14.147-1.182-.014-2.39-.194-3.592-.328zm50.537.391c-.15 2.03-.22 4.113-1.24 5.867.42 1.087.85 2.161 1.14 3.21.64 2.262.71 5.23-2.13 5.774-.1.052-.2.1-.3.141a95.739 95.739 0 0 0-.08 6.783c.12-.114.22-.22.32-.312l.26-.272c1.43 2.212 3.43 3.855 5.85 2.617.19-3.546.12-7.087-.52-10.662-.8-4.439-1.94-8.845-3.3-13.146zm-42.781.033c-1.637 4.333-3.069 8.801-4.066 13.32-.743 3.373-.987 6.732-.988 10.106.251-.247.476-.455.492-.442 1.714 1.49 4.021 1.648 5.457-.335.054-.075.288-.297.539-.536l.014-.015c.177-2.263.277-4.529.291-6.778a2.902 2.902 0 0 1-.635-.504c-3.664-1.195-1.569-6-.127-9.099-.49-.929-.773-1.892-.981-2.928-.106-.527-.042-1.649.004-2.789zm53.16.106c-.59.02-1.43.112-2.33.191.17.603.34 1.204.49 1.811.38 1.54.72 3.09 1.04 4.644.89 4.384 1.71 8.807 2.22 13.254.43 3.734.27 7.533-.13 11.271.2-.203.4-.406.59-.609.27 1.08 2.1 6.094 3.96 5.803.41-3.093.65-6.203.61-9.317-.05-4.433-.79-8.868-1.41-13.252-.26-1.896-.53-3.805-1.07-5.646-1.66-.82-4.11-1.882-4.58-3.13a4.304 4.304 0 0 1-.24-1.13c-.06-.955 1.94-1.453 2.51-1.87 1.54-1.127-.14-1.969-1.27-2.02a5.055 5.055 0 0 0-.39 0zm-6.17.152c1.24 4.818 2.33 9.72 3.01 14.648.55 3.95.64 7.994.32 11.998.26.046.48.077.48.075.28 1.196 1.51 5.213 3.41 4.474.4-3.788.62-7.663.15-11.449a156.632 156.632 0 0 0-3.76-19.688c-1.24.104-2.58.163-3.61-.058zm-31.33.037.016.092a.26.26 0 0 1-.016-.092zm-30.699 7.344c-.806.416-1.588.871-2.287 1.457-.556.465-1.08.961-1.586 1.472-.993 3.045-1.397 6.387-1.896 9.53-.632 3.972-1.245 7.988-1.203 12.02.017 1.711.087 3.417.187 5.122.17-.172.337-.345.506-.517.004-.01.02-.028.018-.033.252.65 1.047 1.283 1.8 1.043-.18.782-.053.614.38-.504l.14-.422c.041-.136.075-.27.105-.408.037-.16.29-.38.561-.6-.255-3.194-.345-6.395-.139-9.586.281-4.338 1.235-8.63 2.057-12.89.368-1.91.731-3.838 1.357-5.684zm72.43.761c.54 1.887.8 3.845 1.07 5.784.59 4.29 1.36 8.641 1.37 12.98.01 3.103-.24 6.192-.63 9.264.03-.01.06-.027.09-.04.15-.159.31-.318.46-.476.11.61.26 1.338.62 1.852.27.384.66 1.012 1.22 1.002.8-.232.97-.075.49.468.04-.08.26-.313.51-.56.21-1.799.38-3.6.48-5.412.23-3.89-.11-7.79-.52-11.658-.36-3.404-.57-7.018-1.51-10.327v-.007a15.249 15.249 0 0 0-2.8-2.399c-.21-.144-.52-.304-.85-.47zm-24.44 2.483c-.66-.068-.99 1.07-1.71 1.62-.53.403-.631.485-1.29.661-1.083.29-2.527-.68-3.337-1.232a.62.62 0 0 1-.196-.192c-.026.03-.05.057-.093.094-.293.244-.693.596-1.01.797-.43.272-.923.638-1.428.762-1.224.3-2.17-.002-3.238-.717a18.26 18.26 0 0 1-1.06-.752c-.055.044-.073.055-.161.127-.601.485-1.17.885-1.896 1.156-1.122.418-2.254-.013-3.116-.789-.896-.807-.291-1.105-1.002-.594-.501.361-.914.441-1.494.6-.317.087-.726.022-1.138-.11-.285 3.98-.917 8.777 1.875 12.116 1.746 2.088 3.943 3.525 6.734 3.62 1.692.056 5.355.381 6.492-1.019.114-.139.523-.033.633-.168-1.611 1.982-7.307 1.66-9.176 1.186-7.591-1.928-7.62-9.393-7.18-15.74.003-.04.172-.068.336-.094a4.5 4.5 0 0 1-.95-.527c-.041.06-.085.118-.128.177-.901 3.535-1.514 7.173-.96 10.801.617 4.027 1.295 7.544.107 11.496 2.82.498 5.06 2.471 5.515 5.049.088-.046.198.076.12.172-.026.034-.048.069-.073.103.077.62.055 1.271-.09 1.944-.035.166-.085.326-.127.49.037.104.069.203.036.23-.046.038-.083.082-.125.122-.776 2.832-2.182 5.262-1.952 8.292.06.8.159 1.86-.048 2.75-.02.49.069.8.236.99.028-.08.056-.15.084-.23-.035.09.062.24.103.38.88.46 2.856-1.03 3.395-1.55.007.01.012.03.014.04.938 3.28 3.965.18 3.922.11 1.16 1.97 2.667.91 3.353-.73.002 0 .003.01.004.01.025.06.055.11.082.17.039.01.072.03.078.09l.012.09c.959 1.67 2.87.72 3.707-.71-.092-1.91.589-3.64-.358-5.74-.765-1.69-1.112-3.284-1.16-5.13-.123-4.696 2.47-7.416 7.038-7.418.11-.158.31-.27.55-.235 1.13.17 2.04.498 2.82.99.37-.495.75-.982 1.13-1.47-.47-2.546-.95-5.105-1.25-7.676a2.28 2.28 0 0 1-.46-.416c-.59.803-1.32 1.62-2.03 2.006-.32 2.156-.38 4.296.32 6.55.01.031-.76-.338-.85-.632-.602-1.95-.652-3.832-.447-5.713-.065-.012-.131-.022-.194-.047.04.016.123-.06.225-.18.216-1.777.636-3.558 1.036-5.394.73-3.395.63-6.88.28-10.324-.19-.16-.36-.247-.51-.262zm-52.203.035c-1.677 1.767-3.088 3.768-4.334 5.875-1.318 6.01-1.573 12.275-1.195 18.381a59.26 59.26 0 0 0 .477 4.633c.257-.37.502-.819.86-.932.49-.154.565-.383.788-.793.051-.094.323-.349.604-.61a94.317 94.317 0 0 1-.186-5.68c.002-3.937.587-7.864 1.213-11.743.486-3.007.871-6.192 1.773-9.13zm80.602.7c.82 3.074 1.04 6.413 1.37 9.552.41 3.893.82 7.84.59 11.758-.11 1.846-.28 3.684-.48 5.517.11-.111.21-.205.31-.298.1-.108.2-.217.31-.325.47.758.99 1.441 1.78 1.811 1.08-7.246 1.23-14.786.07-22.002 0-.056-.02-.112-.03-.168-1.08-2.032-2.35-4.088-3.92-5.846zm-27.05.064c.36 3.482.44 6.981-.28 10.422-.25 1.202-.51 2.372-.73 3.531.94.375 1.21-.345 1.57-1.098.05-.085.32-.36.6-.642-.02-1.287.2-2.584.37-3.852.24-1.729.46-3.47.8-5.182.03-.138.24-.078.22.06-.37 1.821-.61 3.675-.85 5.517-.15 1.075-.31 2.151-.32 3.23.28-.268.56-.539.55-.547 1.12 1.714 2.45 1.233 3.15-.533.04-.089.3-.352.57-.623-.05-2.312-.03-4.623.08-6.91-.58.198-1.2.228-1.77.002-1.64-.659-2.96-1.917-3.96-3.375zm-25.74 1.263-.03.038c-.862.95-1.994 1.781-3.159 2.277.243 1.703.381 3.427.518 5.14.098 1.212.248 2.455.18 3.678l.492-.506c.03-.037.093-.1.09-.107.227.536.894 2.042 1.656 2.492-.137-1.018-.308-2.05-.481-3.117-.534-3.303-.042-6.65.735-9.895zm-3.396 2.403c-1.124.437-2.263.544-3.209.1a94.028 94.028 0 0 1-.269 6.42l.537-.552c.006-.01.021-.03.019-.037.244.723.562 1.551 1.063 2.135.202.236 1.901 1.563 1.998 1.434.046-.06.298-.304.518-.518.098-1.306-.04-2.623-.149-3.93-.14-1.684-.271-3.378-.508-5.052zm-4.207 7.562c-1.635 1.855-3.738 3.37-5.998 2.131.041 1.905.145 3.817.28 5.74.176.157.335.356.347.465.207 1.9 3.707.32 4.412-.31.091-.082.221-.067.35-.008.409-2.369.729-4.774.959-7.19a8.938 8.938 0 0 1-.35-.828zm38.754.147c-1.03 1.517-2.56 3-3.89 2.38.33 2.536.78 5.061 1.24 7.58 1.99.916 4.16-.224 3.4-2.585-.01-.04.02-.044.07-.026a94.19 94.19 0 0 1-.53-6.949c-.1-.13-.19-.266-.29-.4zm.52.687c.1 2.274.28 4.542.53 6.783.15.088.31.194.32.211.63.627 4.32 1.601 4.64-.32.01-.072.12-.025.25.055.2-1.63.37-3.256.5-4.879-.19-.519-.46-.86-.93-.557-2.16 1.387-3.96.322-5.31-1.293zm-38.742.367a96.036 96.036 0 0 1-.944 6.942c.195.165.342.41.28.572-.537 1.411 1.585 2.515 2.738 2.04.097-.04.203-.008.303.048.64-2.674 1.293-5.36 1.769-8.068a12.789 12.789 0 0 1-.301-.655 4.982 4.982 0 0 1-.474.391c-1.511 1.075-2.643.054-3.371-1.27zm-6.795.772c-.734 1.525-1.89 3.183-3.319 3.176l-.025.058a56.27 56.27 0 0 0 .656 5.985c.19.14.363.348.373.498-.022-.319 1.878-2.546 2.006-2.885.126-.336.25-.653.328-1.002.037-.162.156-.167.295-.1a120.477 120.477 0 0 1-.279-5.709l-.035-.02zm11.103 1.068c-.483 2.652-1.114 5.281-1.74 7.901.051.047.096.094.129.132.205.232.392.48.562.74.074.1.104.178.119.247a9.966 9.966 0 0 1 3.09-.725c.759-2.579.732-5.003.444-7.498-.337.345-.727.69-.846.727-.66.21-1.307-.69-1.758-1.524zm40.854.21c-.13 1.48-.29 2.963-.47 4.45.18.154.37.342.38.438.1.54 2.01 4.315 2.18 2.887.01-.066.16-.003.32.093.3-1.43.55-2.874.74-4.328-.18-.524-.31-1.002-.37-1.297.02.072-2.07-.308-2.45-1.14-.13-.273-.22-.694-.33-1.104zm-55.5 2.38a9.392 9.392 0 0 1-1.618 2.33c-.376.4-1.635 1.338-2.519 1.438.151 2.424.348 4.893.881 7.257 2.737 1.039 3.57-3.694 3.603-5.414.004-.195.122-.23.268-.183a57.689 57.689 0 0 1-.615-5.428zm58.81 1.6a59.975 59.975 0 0 1-.7 4.021c.17.137.33.297.33.406-.06 1.66.26 6.005 2.98 5.059.07-.023.19.041.32.129.56-2.112.87-4.32 1.12-6.496-.11-.349-.2-.669-.28-.953-.13.108-.27.214-.37.293-1.59 1.226-2.75-.746-3.4-2.459zm-63.4 2.125A12.574 12.574 0 0 1 52.27 91.9c-.362.38-1.599 1.521-2.474 1.772.31 3.444.804 6.878 1.37 10.278 3.233-.2 4.205-4.971 4.038-7.507-.01-.178.11-.206.238-.189-.515-2.342-.71-4.795-.859-7.186a.799.799 0 0 1-.244-.056zm67.61 1.472c-.25 2.068-.55 4.16-1.08 6.166.16.151.3.324.29.416-.27 2.285.06 7.154 3.3 7.264.08 0 .18.05.28.11.68-3.05 1.3-6.133 1.77-9.237a6.986 6.986 0 0 1-.29-.892c-.13.096-.25.17-.35.187-1.96.333-3.22-2.039-3.92-4.014zm-22.143.491c-2.014.055-4.654.576-5.553 2.472a10.322 10.322 0 0 0-.826 2.692c.276.426.462.785.603 1.283.294 1.033.524-.219.57-.449.187-.667.138-1.294-.148-1.877-.004-.011-.008-.055-.012-.076l-.09-.434c-.001-.003-.003-.014-.005-.016a3.414 3.414 0 0 1 1.675 1.813c.826 2.027.868-1.758.622-2.354-.006-.013-.012-.07-.018-.103l-.084-.406c-.002-.004-.003-.017-.006-.018.97.39 1.709 1.254 2.119 2.203.326.754.476.363.6-.281.182-.95-.186-1.492-.551-2.272-.005-.01-.01-.057-.014-.08l-.09-.43c-.001-.004-.003-.014-.005-.015.987.495 1.946 1.046 2.596 1.957.2.27.43 1.364.65.375.24-1.105-.15-1.558-.76-2.35a.882.882 0 0 1-.05-.259l-.06-.276c.86.246 1.58.675 2.27 1.221.59.46 1.5 1.776 1.1-.045-.82-1.053-2.08-1.817-3.96-2.098a.448.448 0 0 1-.32-.177c-.085 0-.163-.003-.253 0zm-23.506.35a.412.412 0 0 1-.131.03c-1.867.003-3.629.634-4.943 1.73a2.594 2.594 0 0 0-.104.981.785.785 0 0 1 .369-.548c.328-.27.665-.547 1.02-.78a6.323 6.323 0 0 1 1.82-.843c.115-.032.17.103.107.183-.756.973-1.366 1.987-.666 3.252-.158-.285.235-.92.416-1.123.687-.769 1.566-1.278 2.487-1.725.1-.049.198.05.15.151-.511 1.07-.977 1.89-.564 3.103.257.756.116.113.394-.351.517-.865 1.124-1.653 2.098-2.016.077-.029.16.06.135.135-.311.9-.511 1.713-.235 2.674.259.902.193.967.567.002.287-.741.968-1.386 1.685-1.71.077-.036.199.022.16.122-.408 1.049-.482 1.979-.046 3.066-.122-.302.396-1.101.689-1.502-.378-2.538-2.735-4.305-5.361-4.726-.022-.004-.036-.048-.047-.106zm-2.137.79c-.048-.005-.253.091-.734.34-.878.454-1.681 1.05-2.325 1.801-.07.082-.174.007-.185-.076a2.486 2.486 0 0 1 .047-.87c-1.272 1.175-2.055 2.823-1.969 4.794.01.227.003.452-.002.677.788-.855 2.36-1.939 2.703-2.117-.027.014.147.467.113.535-.494 1.002-1.102 2.039-.167 3.181.357.43.226-.714.339-.96.519-1.121 1.435-1.914 2.397-2.658l.053.246c.035.12.07.248.06.289-.308 1.227-.544 2.274.209 3.423.246.37.213-.47.262-.63.34-1.118.813-2.161 1.824-2.815-.022.015.127.464.115.536-.205 1.256-.007 2.171.674 3.249.32.5.378-.95.426-1.072.374-.972.88-1.628 1.775-2.174l.039.186c.044.138.1.306.075.35-.61 1.063-.224 4.42.357 2.4.267-.925.563-1.668 1.289-2.305a7.57 7.57 0 0 0 .17-.793c.06-.399.07-.785.043-1.156-.275.492-.377 1.004-.633 1.52-.034.068-.155.074-.187 0-.348-.808-.568-1.616-.403-2.491.11-.583.715-1.436-.36-.295-.576.614-.774 1.285-1.228 1.952-.055.082-.164.064-.2-.026-.353-.917-.644-1.99-.32-2.963.068-.199.452-.714-.011-.423-.63.395-1.007.794-1.396 1.445-.22.367-.388.748-.573 1.135-.045.095-.168.05-.2-.028-.38-.939-.557-1.807-.108-2.75.097-.208.197-.416.3-.623.357-.26.402-.317.133-.168-.288.15-.58.297-.855.47-.96.597-1.5 1.17-1.885 2.237-.03.085-.15.116-.199.028-.471-.85-.558-1.899.016-2.737.245-.359.6-.655.52-.664zm27.246.604c.64 1.032.93 2.156.28 3.357v-.01c-.52-1.449-1.53-2.156-2.823-2.822.546 1.24.784 2.177.188 3.637a.03.03 0 0 1-.004-.008c-.518-1.135-1.113-2.254-2.293-2.78.168.496.287 1.022.26 1.542-.032.592-.14 2.574-.743 1.631-.544-.853-.802-1.628-1.73-2.114.336 1.124.34 2.14-.186 3.348l-.004-.01c-.302-.647-.435-1.254-.861-1.896-.071-.109-.051-.277-.072-.412a11.81 11.81 0 0 0-.125 2.787c.522.444.947.978 1.135 1.651.87 3.13 1.324-.646.793-1.739-.006-.012-.008-.05-.012-.07l-.092-.442c-.002-.002-.003-.012-.006-.014.91.569 1.568 1.328 1.805 2.385.539 2.41 1.27-2.324 1.19-2.855a.078.078 0 0 1-.001-.037c1.014.669 1.529 1.76 1.82 2.902.09.37.1.85.44.23.58-1.079.52-2.02.23-3.218-.02-.063-.03-.369-.08-.405 1.14.903 2.18 1.843 2.52 3.283.03.12.06.24.07.37.04.29.68-1.176.66-1.016.1-.797-.05-1.524-.46-2.18 0-.012 0-.059-.01-.084l-.09-.429v-.014c1.03.549 1.77 1.353 2.53 2.211.09-2.266-.13-4.554-1.35-6.18.1.448.16.89.04 1.364-.02.066-1.25-1.02-1.56-1.22a6.874 6.874 0 0 0-1.46-.743zm-37.775.123s-1.103 1.33-1.018 3.109c.085 1.781 1.328 3.817 1.328 3.817s.822-2.629.737-3.789c-.084-1.159-1.047-3.137-1.047-3.137zm-17.176.656c-.008.014-.009.021-.025.041l.025-.04zm2.818.193c-.886 1.306-2.178 2.632-3.185 2.317.317 4.452.783 8.892 1.037 13.352 2.926.05 3.17-2.88 3.564-5.28.015-.09.117-.12.194-.12h.058c-.56-3.39-1.07-6.808-1.388-10.243a.674.674 0 0 1-.28-.026zm45.08.91a.269.269 0 0 1 .024.071c-.01-.024-.015-.048-.024-.072zm-49.074.637c-.519.636-1.12 1.221-1.765 1.573.646 4.459 1.761 8.779 3.144 13.089-.019-.11-.039-.22-.058-.34-.02-.12.082-.22.201-.21a.36.36 0 0 0 .103.01c-.258-4.5-.747-8.98-1.064-13.469-.205-.13-.395-.342-.56-.653zm81.376.276c-.47 3.04-1.06 6.066-1.72 9.066.17.14.31.31.32.44.23 2.11.23 5 2.99 4.92.05-.01.13.02.21.07.51-4.5 1.24-8.97 1.78-13.457-.1-.14-.19-.287-.29-.436-.19.172-.38.34-.55.5-1.2 1.103-2.18.061-2.74-1.103zm-67.225.644s-.508 2.345-.198 3.674c.311 1.328 1.612 3.078 1.612 3.078s.65-2.26.451-3.926c-.198-1.667-1.865-2.826-1.865-2.826zm70.995.637c-.55 4.455-1.26 8.895-1.76 13.355.17.12.33.27.38.39 1.55-3.98 2.95-8.06 3.67-12.255l.21-1.314c-.32.441-.72 1.042-.93.976-.67-.213-1.16-.636-1.57-1.152zm-59.072.678c-.985.613-1.8 1.468-2.421 2.447-.068.68-.163 1.36-.237 2.05-.06.57-.078 1.1-.064 1.62.731-.74 2.053-1.66 2.34-1.81-.027.01.147.46.113.53-.431.88-.976 1.8-.162 2.79.319.38.202-.64.304-.86.463-1 1.28-1.71 2.139-2.37l.053.24c.035.12.071.25.06.29-.271 1.08-.49 1.99.174 3 .219.34.19-.42.235-.56.304-1 .726-1.93 1.629-2.52-.011.01.02.13.052.25l.06.29c-.095.66.582 4.02.882 2.38.2-1.1.724-1.85 1.675-2.43l.04.18c.043.14.099.31.074.35-.454.81.039 4.03.38 2.08.14-.8.4-1.41.969-1.95.394-1.34 1.078-2.67 1.569-4.005-.613.795-.854 1.785-1.221 2.745-.001 0-.004-.01-.006-.01-.512-1.19-.868-2.368-.545-3.548-.437.31-.873.703-1.051 1.164-.056.148-.696 1.794-.613 1.924-.317-.5-.68-1.07-.824-1.64-.188-.75-.28-1.412-.236-2.141-.968.721-1.435 1.838-1.711 2.991-.225.94-.735-.61-.856-1.032-.242-.851-.147-1.577.037-2.369-.953.745-2.018 1.657-2.205 2.881-.195 1.28-.641-.03-.785-.598-.221-.867-.127-1.6.152-2.359zm32.143.461c.53 1.269.74 2.546-.29 3.766.03-.04-.1-.43-.11-.5-.15-1.07-.74-1.814-1.5-2.483.06.051-1.01-1.121-.86-.5.06.264.13.529.18.797.22 1.146-.06 1.986-.73 2.976.01-.02-.05-.18-.05-.2-.22-.96-.456-2.057-1.191-2.776-.492-.482-.628-.908-.611.097.02 1.199-.377 2.189-1.026 3.189-.001 0-.002 0-.003-.01-.441-1.25-.754-2.454-1.907-3.269.464 1.249.346 2.249-.306 3.729-.002 0-.004-.01-.006-.01-.435-1.17-.767-2.45-1.738-3.281.155 1.321.536 2.581 1.158 3.651.124.22.226.45.31.69-.003-.07-.011-.14-.047-.17.642.48 1.068 1.09 1.225 1.87.066.33.117.65.143.98.002.05.547-.85.527-.8.32-.76.352-1.25-.022-1.98-.006-.01-.007-.06-.011-.08-.031-.14-.062-.29-.092-.44-.002 0-.003-.01-.006-.01.756.46 1.387 1.13 1.584 2.02 0 0 .277 1.02.354.9.68-1.13.92-1.94.738-3.34a.061.061 0 0 1-.002-.03c.909.6 1.369 1.57 1.629 2.6.08.31.09.75.39.19.51-.95.47-1.77.21-2.83-.01-.06-.03-.36-.07-.4 1.11.88 1.76 1.68 2.12 2.78.07.19.14.38.19.59.75-.91.71-1.84.19-2.91-.01-.01-.01-.06-.01-.09l-.09-.42-.01-.01c.67.35 1.19.83 1.73 1.33-.02-.44-.02-.88.03-1.34.08-.75.16-1.53.2-2.319-.66-.752-1.34-1.447-2.22-1.957zm-.01 7.126c-.23-.6-.66-1.08-1.15-1.52.09.08-.89-.95-.78-.49.06.25.12.49.17.74.19 1.04-.05 1.78-.65 2.67.01-.01-.05-.17-.05-.19-.2-.85-.41-1.82-1.06-2.46-.41-.4-.591-.84-.56.07.038 1.08-.32 1.96-.902 2.87-.002-.01-.002-.01-.004-.01-.424-1.1-.674-2.19-1.68-2.91.412 1.13.27 2.06-.58 3.27.004-.01-.035-.13-.037-.14-.245-1.02-.38-2.04-1.268-2.75.132.54.184 1.09.157 1.61-.022.4-.06.81-.1 1.21.473.79.467 1.56.443 2.44.79-.75 1.105-1.44 1.159-2.55v-.01c.813.8.787 1.77.853 2.78.826-.81 1.325-1.66 1.385-2.84 0 0 0-.01.002-.01.775.83.943 1.99.976 3.1.916-.9 1.026-1.73 1.016-3.03v-.01c.87 1.09 1.41 2.09 1.45 3.37.81-.66.98-1.48.74-2.58-.01-.05-.02-.31-.06-.34.64.56 1.07 1.23 1.44 1.98v.01c.47-.72.82-1.5.99-2.24.25-1.09.17-2.09.12-3.1-.46-.43-.92-.83-1.46-1.14h-.01c.46 1.12.64 2.27-.26 3.35 0-.01-.01-.07-.02-.1l-.06-.27a.683.683 0 0 0-.04-.13c-.03-.23-.09-.45-.17-.65zm.27 1.05c0 .02.01.04.01.06l-.03-.17c.02.05.01.07.02.11zm-39.213-4.38c-.821.08-1.639 1.18-1.639 1.18s1.612.43 2.205.4c.594-.03 1.782-.79 1.782-.79s-1.529-.88-2.348-.79zm6.092.84c-.77.49-1.423 1.15-1.944 1.89.171 1.56.68 2.9 1.434 4.19.364-.65.76-1.24 1.342-1.73l.06.28c.032.11.062.21.053.25-.19.83-.368 1.62.369 2.26.496.42.196-.38.256-.67.2-.98.774-1.78 1.395-2.55-.002 0 .001.01 0 .02.031.14.062.28.093.43.006.02.02.06.02.08-.012.87-.02 1.62.654 2.31.43.43.31-.1.315-.43.013-.89.289-1.8.912-2.45-.008.01.012.08.025.14l.045.21c.015.05.037.13.039.15.103.68 1.4 3.53 1.36 1.65-.015-.77.2-1.51.769-2.06v.02c.029.14.059.27.088.41.008.03.025.08.025.1.03.78 1.306 2.86 1.076 1.38-.097-.62.048-1.26.4-1.77-.027-.36-.056-.71-.073-1.08-.02-.39.014-.79.078-1.18-.533.72-1.101 1.81-.754 2.31-.306-.44-.628-.94-.762-1.47-.162-.63-.208-1.1-.08-1.6-.366.27-.722.6-.871.98-.051.14-.621 1.61-.547 1.72-.286-.45-.61-.96-.74-1.48-.168-.67-.25-1.24-.221-1.89-.855.65-1.267 1.64-1.514 2.67-.201.84-.659-.55-.767-.93-.215-.75-.145-1.39.01-2.09-.845.66-1.778 1.47-1.942 2.55-.175 1.15-.579-.04-.707-.54-.194-.76-.127-1.41.104-2.08zm5.045 4.44c-.812.87-.876 2.02-.883 3.15v.02c-1.008-.96-1.176-1.82-1.194-3.01-.801 1.01-1.354 1.95-1.244 3.31v.01c-.951-.71-1.139-1.75-1.021-2.8a5.88 5.88 0 0 0-.998 1.32c.464.74 1.016 1.49 1.619 2.24.172-.12.337-.21.502-.28-.253.21-.493.5-.795.75.304.9.077 2.31-.197 4.36-.274 2.04-1.747 4.16-2.424 4.77-.677.62-.75.85-1.393.91-1.181.12-1.613.12-2.371.45-.664.29-1.159 1.19-1.127 1.94.018.43.455.38.885.23-.212.16-.488.4-.545.54-.218.56-.095.78.117 1.23.285.59 1.541 1.14 1.541 1.14s.454-.8.914-1.54c-.054.12-.118.23-.156.36-.265.93.241 1.91 1.258 2.4 1.146.56 1.955-.16 2.664-.45 0 0-.508-.12-.805-.39-.297-.28-.477-.36-.162-1.01.078-.16.13-.26.176-.32.008-.01.017-.01.025-.01.069-.02.137-.04.205-.05.09.03.203.08.422.1.288.04.662.57.662.57s.326-.21.463-.74c.152-.59.358-2.33.112-2.78-.248-.45-.727-.96-1.221-1.41 3.659-3.82 5.187-9.43 5.16-9.33 0 0-.66-.76-1.04-1.18-.367-.41-.442-.4-1.237-.72.824.12 1.57.75 2.29 1.53.48-.06 1.022-.26 1.39-.42 2.223-.93 2.32-2.64 2.195-4.57-.425.74-.254 1.58-.264 2.43v.01c-.9-.82-1.22-1.59-1.328-2.61-.646.68-.554 1.41-.684 2.31-.138.95-1.033-.55-1.2-1.06-.151-.46-.236-.92-.311-1.4zm19.283.33c-.037.35-.076.7-.113 1.06.129-1.22.592 4.17 1.677 3.59.409-.47.804-.88 1.293-1.19-.07.06-.144.13-.238.24-.38.42-1.04 1.17-1.04 1.17-.025-.09.29 4.28 3.954 8.1-.5.46-.975.97-1.223 1.42-.246.44-.172 2.23.11 2.78.28.54.463.74.463.74.2-.24.51-1.05.88-1.5.09-.06.17-.12.27-.16-.03-.01-.06-.01-.09-.02.01 0 .02-.01.03-.02.14-.03.28-.07.42-.11.44 0 .57.17.7.8.14.71-.57 1.53-.87 1.8-.3.28-.84.46-.84.46.92.71 2.78 1.63 3.85-.03.52-.78.47-1.09.24-1.68.12.22.27.5.27.5s.78.3 1.43-.21c.5-.41.58-1.14.47-2.01-.03-.26-.33-.49-.5-.62-.64-.44-1.52-.52-1.68-.53.01 0 .02-.01.02-.01.05-.01.09-.02.13-.03.06-.01.11-.01.17-.02.2-.01.39-.01.54.01l-.05-.03c.13 0 .26.02.34.08.24.18 1.24 1.05 1.27.29s-.27-1.39-.93-1.7c-.65-.32-1.72-.57-2.36-.63-.65-.07-.72-.11-1.4-.73-.67-.62-1.42-2.78-1.69-4.82-.28-2.05-.02-2.18.28-3.08-.38-.33-.67-.71-1.008-.91h.039l-.045-.2c-.006-.03-.021-.08-.021-.09.002-.84.1-1.61-.526-2.39-.367-.46-.227.22-.306.47-.268.88-.725 1.53-1.383 2.16.008-.01-.014-.09-.03-.16l-.036-.17c-.02-.07-.043-.15-.045-.17-.088-.65-.517-3.19-.698-1.7-.103.86-.638 1.48-1.263 2.03.007 0-.015-.07-.024-.12-.02-.09-.037-.18-.056-.27-.013-.05-.034-.11-.034-.13-.002-.76.123-1.58-.347-2.26zm6.033.28c-.17.05-.06.98-.07 1.21-.04.63-.46 1.13-.9 1.55.63.12 1.2.38 1.03.83-.11.29-.19.62-.25.98 1.36-.34 2.63-1.42 3.5-2.71-.19-.37-.39-.74-.68-1.04.05.05-.59-.78-.5-.35.05.21.08.41.12.62.15.88-.29 1.69-.99 2.2-.04-.18-.07-.35-.11-.53.1-1.12-.34-1.82-.98-2.65-.07-.1-.13-.13-.17-.11zm-44.87 1.2c-.269-.04-.516.05-.616.25-.132.27.048.63.404.81.356.17.753.1.885-.17.133-.26-.048-.62-.405-.8-.088-.04-.18-.07-.269-.09zm38.542.54c-.23.37-.572.78-.977 1.1l2.375 7.26c.055 0 .107.01.145.02.78.32 1.574.56 2.389.76-.12-.18-.238-.35-.344-.54-.941-1.63-2-3.67-2.03-5.62.058-.06.11-.12.166-.19-.842-.53-1.353-1.2-1.613-2.22a5.21 5.21 0 0 1-.111-.57zm1.558 2.98c0-.02.129-.05.268-.08-.11.01-.216.02-.268.08zm-5.486-2.4c-.112.13-.163.61-.74 1.09-.951.79-2.233-.28-2.514-.48l-.22 9.21c.07.01.135.04.166.1a47.77 47.77 0 0 0 2.335 4.2c.349.56.408-.78.713-1.37.509-.97.988-1.84 1.149-2.96.015-.1.096-.17.19-.21l-1.08-9.58zm.225.05 1.068 9.49c.08 0 .158.02.207.09.255.31 2.499 3 2.807 2.1.425-1.24.72-2.38.664-3.69-.004-.09.063-.15.148-.19l-2.351-7.2c-.675.47-1.462.64-2.1-.11-.213-.26-.344-.4-.443-.49zm-11.414.34s-.001 0 0 0h.002-.002zc-.072.23-.16.45-.287.64-.82 1.22-1.931 1.4-3.114 1.8a23.834 23.834 0 0 1-1.593 4.07c-.05.56-.094 1.13-.131 1.69-.037.55-.437 1.35.216.87 1.209-.88 2.43-1.69 3.159-3.08.037-.07.14-.13.25-.16-.002-.02-.01-.05-.002-.07l1.785-4.95c-.03-.04-.06-.08-.088-.13-.092-.16-.156-.41-.195-.68zm19.064.07c-.017.01-.028.01-.045.02h-.027c.024-.01.048-.01.072-.02zm-15.053.05c-.012 0-.031 0-.045.01-.4 2.56-.798 5.13-1.197 7.7.103.02.184.09.188.21.068 2.05.356 4.23 1.008 6.18-.03-.09 3.157-4.09 3.324-4.59.03-.09.164-.17.299-.2l.222-9.27c-.66.65-2.336 2.29-3.18 1.02-.394-.6-.41-1.02-.62-1.06zm-.252.08c-.114.06-.253.15-.455.3-.933.72-1.985 1.45-2.81.58l-1.711 4.74c.066.03.109.08.094.18-.3 1.94-.344 3.91-.311 5.86.022 1.28.206.11.95-.54 1.144-.98 2.164-1.9 2.816-3.29.04-.09.144-.15.252-.17-.002-.02-.01-.04-.006-.06.393-2.54.788-5.07 1.18-7.6zm-10.632.28-.094.06c-.029 0-.057-.01-.09-.01.061-.02.122-.03.184-.05zm-8.52.32a.959.959 0 0 0-.539.17c-.35.23-.493.63-.32.89s.598.28.949.04c.349-.23.493-.63.318-.89a.509.509 0 0 0-.408-.21zm2.91 3.81c-.196-.01-.429.04-.652.16-.446.24-.684.67-.531.95.152.28.635.31 1.082.07.445-.24.686-.66.533-.95-.076-.14-.236-.22-.432-.23zm-9.713 1.18c-.445 0-.806.23-.806.51s.361.51.806.51.805-.23.805-.51-.36-.51-.805-.51zm-1.638 4.43c-.626-.02-1.375-.01-1.869.12-.99.26-2.969 1.95-3.28 2.43.792.26 2.46.45 3.393.14s2.885-2.62 2.885-2.62-.504-.05-1.129-.07zm3.787 1s-.792 1.39-.537 2.8c.254 1.41.791 3.11 1.554 3.81.397-.82.847-2.71.565-4.01-.283-1.3-1.582-2.6-1.582-2.6zm8.355 3.12h.004c-.02.02-.109.11-.183.18.07-.08.129-.14.179-.18zm-11.099.33s-.963 1.86-.82 3.22c.14 1.36 1.102 3.42 1.951 3.93.282-.73.678-2.6.507-3.62-.169-1.02-1.638-3.53-1.638-3.53z"/><g fill="none" stroke="#000"><path stroke-width=".9375" d="M26.732 86.268c0-32.948 26.709-59.656 59.656-59.656 32.948 0 59.656 26.709 59.656 59.656s-26.708 59.656-59.656 59.656c-32.947 0-59.656-26.709-59.656-59.656z"/><path stroke-width=".19688" d="m83.152 138.2 39.979-24.047"/><path stroke-width=".21875" d="M79.915 41.98c.364-.242.605-.304 1.028-.061.425.242 1.213 1.394 1.213 1.394-.726.12-1.174-.094-1.537-.341-.36-.245-.704-.992-.704-.992z"/></g><g stroke="#000" stroke-width=".21875"><path fill="#ffcd00" d="M80.54 41.842s.346.02.285.384c-.06.363-.181.727-.181.727l-.728-.969.624-.142z"/><path fill="none" d="M67.14 93.299c-.076 1.363-2.29 5.626-4.766 8.928-2.498 3.329-3.708 9.684-1.665 13.542 2.043 3.859 2.989 5.58 4.425 7.245.044-.468.307-.762.307-.762s-.06-.11-.268-.28c-.998-.814-4.085-5.977-4.54-8.549-.454-2.571-.53-4.917.53-7.792 1.065-2.89 2.9-4.62 3.631-5.75.833-1.287 2.27-4.464 2.346-5.22.076-.758 0-1.363 0-1.363zm2.95 33.359c.372-.355 1.596.548.12-.18 0 0 1.923 1.497 2.94 1.836.758.253 2.912 1.018 4.354.933-.509.312-2.12.34-3.025.142-.905-.198-3.478-1.047-4.382-2.205-.188-.242-.136-.405-.007-.526zm-4.997-3.432c-.537-.396-2.657-1.584-3.873-1.98-1.216-.395-1.187-.536-2.261-.649-1.075-.113-2.178.056-2.178.056m1.386-.113c-.424.537-.82 1.045-1.131 2.035-.31.99-.227 2.601-.227 2.601m2.884-4.438c-.056.226-.197.311-.226.99m3.167-2.46c-.792-.876-2.036-1.753-2.997-2.12-.962-.368-1.555-.51-1.555-.51m6.021 4.044c-.339-.99-.452-2.12.198-2.77.65-.65 1.725-1.754 1.725-1.754m-4.382.113c-.226-.989-.113-3.477 1.64-4.184m-3.45 1.047c-.253-.51-1.385-2.715-3.053-3.478m4.24-5.202c-.141-.44-.34-.98-.113-1.74M93.834 53.674c-.896 0-4.052-2.027-4.944-3.486-.891-1.459-1.768-3.632-2.674-4.538-.892-.892-2.837-1.62-2.837-1.62m5.835 2.593c-.972-.487-1.54-1.054-2.35-1.865-.811-.81-1.945-1.702-2.675-1.945-.73-.243-1.054-.243-1.054-.243"/></g></svg>